<svg aria-roledescription="er" role="graphics-document document" viewBox="0 0 520.5101013183594 1271.078125" height="1271.078125" xmlns="http://www.w3.org/2000/svg" width="520.5101013183594" id="tmpMermaidElement8637"><style>svg {background: white;}#tmpMermaidElement8637{font-family:"trebuchet ms",verdana,arial,sans-serif;font-size:16px;fill:#333;}#tmpMermaidElement8637 .error-icon{fill:#552222;}#tmpMermaidElement8637 .error-text{fill:#552222;stroke:#552222;}#tmpMermaidElement8637 .edge-thickness-normal{stroke-width:2px;}#tmpMermaidElement8637 .edge-thickness-thick{stroke-width:3.5px;}#tmpMermaidElement8637 .edge-pattern-solid{stroke-dasharray:0;}#tmpMermaidElement8637 .edge-pattern-dashed{stroke-dasharray:3;}#tmpMermaidElement8637 .edge-pattern-dotted{stroke-dasharray:2;}#tmpMermaidElement8637 .marker{fill:#333333;stroke:#333333;}#tmpMermaidElement8637 .marker.cross{stroke:#333333;}#tmpMermaidElement8637 svg{font-family:"trebuchet ms",verdana,arial,sans-serif;font-size:16px;}#tmpMermaidElement8637 .entityBox{fill:#ECECFF;stroke:#9370DB;}#tmpMermaidElement8637 .attributeBoxOdd{fill:#ffffff;stroke:#9370DB;}#tmpMermaidElement8637 .attributeBoxEven{fill:#f2f2f2;stroke:#9370DB;}#tmpMermaidElement8637 .relationshipLabelBox{fill:hsl(80, 100%, 96.2745098039%);opacity:0.7;background-color:hsl(80, 100%, 96.2745098039%);}#tmpMermaidElement8637 .relationshipLabelBox rect{opacity:0.5;}#tmpMermaidElement8637 .relationshipLine{stroke:#333333;}#tmpMermaidElement8637 .entityTitleText{text-anchor:middle;font-size:18px;fill:#333;}#tmpMermaidElement8637 #MD_PARENT_START{fill:#f5f5f5!important;stroke:#333333!important;stroke-width:1;}#tmpMermaidElement8637 #MD_PARENT_END{fill:#f5f5f5!important;stroke:#333333!important;stroke-width:1;}#tmpMermaidElement8637 :root{--mermaid-font-family:"trebuchet ms",verdana,arial,sans-serif;}</style><g></g><defs><marker orient="auto" markerHeight="240" markerWidth="190" refY="7" refX="0" id="MD_PARENT_START"><path d="M 18,7 L9,13 L1,7 L9,1 Z"></path></marker></defs><defs><marker orient="auto" markerHeight="28" markerWidth="20" refY="7" refX="19" id="MD_PARENT_END"><path d="M 18,7 L9,13 L1,7 L9,1 Z"></path></marker></defs><defs><marker orient="auto" markerHeight="18" markerWidth="18" refY="9" refX="0" id="ONLY_ONE_START"><path d="M9,0 L9,18 M15,0 L15,18" fill="none" stroke="gray"></path></marker></defs><defs><marker orient="auto" markerHeight="18" markerWidth="18" refY="9" refX="18" id="ONLY_ONE_END"><path d="M3,0 L3,18 M9,0 L9,18" fill="none" stroke="gray"></path></marker></defs><defs><marker orient="auto" markerHeight="18" markerWidth="30" refY="9" refX="0" id="ZERO_OR_ONE_START"><circle r="6" cy="9" cx="21" fill="white" stroke="gray"></circle><path d="M9,0 L9,18" fill="none" stroke="gray"></path></marker></defs><defs><marker orient="auto" markerHeight="18" markerWidth="30" refY="9" refX="30" id="ZERO_OR_ONE_END"><circle r="6" cy="9" cx="9" fill="white" stroke="gray"></circle><path d="M21,0 L21,18" fill="none" stroke="gray"></path></marker></defs><defs><marker orient="auto" markerHeight="36" markerWidth="45" refY="18" refX="18" id="ONE_OR_MORE_START"><path d="M0,18 Q 18,0 36,18 Q 18,36 0,18 M42,9 L42,27" fill="none" stroke="gray"></path></marker></defs><defs><marker orient="auto" markerHeight="36" markerWidth="45" refY="18" refX="27" id="ONE_OR_MORE_END"><path d="M3,9 L3,27 M9,18 Q27,0 45,18 Q27,36 9,18" fill="none" stroke="gray"></path></marker></defs><defs><marker orient="auto" markerHeight="36" markerWidth="57" refY="18" refX="18" id="ZERO_OR_MORE_START"><circle r="6" cy="18" cx="48" fill="white" stroke="gray"></circle><path d="M0,18 Q18,0 36,18 Q18,36 0,18" fill="none" stroke="gray"></path></marker></defs><defs><marker orient="auto" markerHeight="36" markerWidth="57" refY="18" refX="39" id="ZERO_OR_MORE_END"><circle r="6" cy="18" cx="9" fill="white" stroke="gray"></circle><path d="M21,18 Q39,0 57,18 Q39,36 21,18" fill="none" stroke="gray"></path></marker></defs><path style="stroke: gray; fill: none;" marker-start="url(#ONLY_ONE_START)" marker-end="url(#ZERO_OR_MORE_END)" d="M154.412,167.016L154.412,175.349C154.412,183.682,154.412,200.349,154.412,217.016C154.412,233.682,154.412,250.349,154.412,258.682L154.412,267.016" class="er relationshipLine"></path><path style="stroke: gray; fill: none;" marker-start="url(#ONLY_ONE_START)" marker-end="url(#ZERO_OR_MORE_END)" d="M213.507,363.159L235.367,375.971C257.227,388.783,300.947,414.407,322.807,435.553C344.667,456.698,344.667,473.365,344.667,481.698L344.667,490.031" class="er relationshipLine"></path><path style="stroke: gray; fill: none;" marker-start="url(#ONLY_ONE_START)" marker-end="url(#ZERO_OR_MORE_END)" d="M123.272,390.031L119.053,398.365C114.834,406.698,106.396,423.365,102.177,448.283C97.958,473.201,97.958,506.37,97.958,539.539C97.958,572.708,97.958,605.878,97.958,646.796C97.958,687.714,97.958,736.38,97.958,760.714L97.958,785.047" class="er relationshipLine"></path><path style="stroke: gray; fill: none;" marker-start="url(#ONLY_ONE_START)" marker-end="url(#ZERO_OR_MORE_END)" d="M165.421,872.597L211.962,898.841C258.503,925.085,351.585,977.574,398.126,1016.152C444.667,1054.729,444.667,1079.396,444.667,1091.729L444.667,1104.063" class="er relationshipLine"></path><path style="stroke: gray; fill: none;" marker-start="url(#ONLY_ONE_START)" marker-end="url(#ZERO_OR_MORE_END)" d="M344.667,589.047L344.667,597.38C344.667,605.714,344.667,622.38,344.667,639.047C344.667,655.714,344.667,672.38,344.667,680.714L344.667,689.047" class="er relationshipLine"></path><path style="stroke: gray; fill: none;" marker-start="url(#ONLY_ONE_START)" marker-end="url(#ZERO_OR_MORE_END)" d="M81.017,884.063L72.691,908.396C64.364,932.729,47.711,981.396,43.498,1014.063C39.286,1046.729,47.514,1063.396,51.629,1071.729L55.743,1080.063" class="er relationshipLine"></path><path style="stroke: gray; fill: none;" marker-start="url(#ONLY_ONE_START)" marker-end="url(#ZERO_OR_MORE_END)" d="M294.875,980.063L292.024,988.396C289.172,996.729,283.469,1013.396,263.642,1034.522C243.816,1055.648,209.866,1081.233,192.892,1094.026L175.917,1106.819" class="er relationshipLine"></path><g transform="translate(83.72964477539062,20 )" id="entity-Address-c76279a2-ae7d-51c9-9b7a-8d5514196196"><rect height="147.015625" width="141.36386108398438" y="0" x="0" class="er entityBox"></rect><text style="dominant-baseline: middle; text-anchor: middle; font-size: 12px;" transform="translate(70.68193054199219,13.5078125)" y="0" x="0" id="text-entity-Address-c76279a2-ae7d-51c9-9b7a-8d5514196196" class="er entityLabel">Address</text><rect height="24" width="37.4693603515625" y="27.015625" x="0" class="er attributeBoxOdd"></rect><text style="dominant-baseline: middle; font-size: 10.2px;" transform="translate(5,39.015625)" y="0" x="0" id="text-entity-Address-c76279a2-ae7d-51c9-9b7a-8d5514196196-attr-1-type" class="er entityLabel">int</text><rect height="24" width="80.76608276367188" y="27.015625" x="37.4693603515625" class="er attributeBoxOdd"></rect><text style="dominant-baseline: middle; font-size: 10.2px;" transform="translate(42.4693603515625,39.015625)" y="0" x="0" id="text-entity-Address-c76279a2-ae7d-51c9-9b7a-8d5514196196-attr-1-name" class="er entityLabel">Id</text><rect height="24" width="23.12841796875" y="27.015625" x="118.23544311523438" class="er attributeBoxOdd"></rect><text style="dominant-baseline: middle; font-size: 10.2px;" transform="translate(123.23544311523438,39.015625)" y="0" x="0" id="text-entity-Address-c76279a2-ae7d-51c9-9b7a-8d5514196196-attr-1-key" class="er entityLabel">PK</text><rect height="24" width="37.4693603515625" y="51.015625" x="0" class="er attributeBoxEven"></rect><text style="dominant-baseline: middle; font-size: 10.2px;" transform="translate(5,63.015625)" y="0" x="0" id="text-entity-Address-c76279a2-ae7d-51c9-9b7a-8d5514196196-attr-2-type" class="er entityLabel">string</text><rect height="24" width="80.76608276367188" y="51.015625" x="37.4693603515625" class="er attributeBoxEven"></rect><text style="dominant-baseline: middle; font-size: 10.2px;" transform="translate(42.4693603515625,63.015625)" y="0" x="0" id="text-entity-Address-c76279a2-ae7d-51c9-9b7a-8d5514196196-attr-2-name" class="er entityLabel">City</text><rect height="24" width="23.12841796875" y="51.015625" x="118.23544311523438" class="er attributeBoxEven"></rect><text style="dominant-baseline: middle; font-size: 10.2px;" transform="translate(123.23544311523438,63.015625)" y="0" x="0" id="text-entity-Address-c76279a2-ae7d-51c9-9b7a-8d5514196196-attr-2-key" class="er entityLabel"></text><rect height="24" width="37.4693603515625" y="75.015625" x="0" class="er attributeBoxOdd"></rect><text style="dominant-baseline: middle; font-size: 10.2px;" transform="translate(5,87.015625)" y="0" x="0" id="text-entity-Address-c76279a2-ae7d-51c9-9b7a-8d5514196196-attr-3-type" class="er entityLabel">string</text><rect height="24" width="80.76608276367188" y="75.015625" x="37.4693603515625" class="er attributeBoxOdd"></rect><text style="dominant-baseline: middle; font-size: 10.2px;" transform="translate(42.4693603515625,87.015625)" y="0" x="0" id="text-entity-Address-c76279a2-ae7d-51c9-9b7a-8d5514196196-attr-3-name" class="er entityLabel">Street</text><rect height="24" width="23.12841796875" y="75.015625" x="118.23544311523438" class="er attributeBoxOdd"></rect><text style="dominant-baseline: middle; font-size: 10.2px;" transform="translate(123.23544311523438,87.015625)" y="0" x="0" id="text-entity-Address-c76279a2-ae7d-51c9-9b7a-8d5514196196-attr-3-key" class="er entityLabel"></text><rect height="24" width="37.4693603515625" y="99.015625" x="0" class="er attributeBoxEven"></rect><text style="dominant-baseline: middle; font-size: 10.2px;" transform="translate(5,111.015625)" y="0" x="0" id="text-entity-Address-c76279a2-ae7d-51c9-9b7a-8d5514196196-attr-4-type" class="er entityLabel">string</text><rect height="24" width="80.76608276367188" y="99.015625" x="37.4693603515625" class="er attributeBoxEven"></rect><text style="dominant-baseline: middle; font-size: 10.2px;" transform="translate(42.4693603515625,111.015625)" y="0" x="0" id="text-entity-Address-c76279a2-ae7d-51c9-9b7a-8d5514196196-attr-4-name" class="er entityLabel">PostalCode</text><rect height="24" width="23.12841796875" y="99.015625" x="118.23544311523438" class="er attributeBoxEven"></rect><text style="dominant-baseline: middle; font-size: 10.2px;" transform="translate(123.23544311523438,111.015625)" y="0" x="0" id="text-entity-Address-c76279a2-ae7d-51c9-9b7a-8d5514196196-attr-4-key" class="er entityLabel"></text><rect height="24" width="37.4693603515625" y="123.015625" x="0" class="er attributeBoxOdd"></rect><text style="dominant-baseline: middle; font-size: 10.2px;" transform="translate(5,135.015625)" y="0" x="0" id="text-entity-Address-c76279a2-ae7d-51c9-9b7a-8d5514196196-attr-5-type" class="er entityLabel">string</text><rect height="24" width="80.76608276367188" y="123.015625" x="37.4693603515625" class="er attributeBoxOdd"></rect><text style="dominant-baseline: middle; font-size: 10.2px;" transform="translate(42.4693603515625,135.015625)" y="0" x="0" id="text-entity-Address-c76279a2-ae7d-51c9-9b7a-8d5514196196-attr-5-name" class="er entityLabel">HouseNumber</text><rect height="24" width="23.12841796875" y="123.015625" x="118.23544311523438" class="er attributeBoxOdd"></rect><text style="dominant-baseline: middle; font-size: 10.2px;" transform="translate(123.23544311523438,135.015625)" y="0" x="0" id="text-entity-Address-c76279a2-ae7d-51c9-9b7a-8d5514196196-attr-5-key" class="er entityLabel"></text></g><g transform="translate(95.31581115722656,267.015625 )" id="entity-ContactInfo-db7f1dcf-9339-5cf2-9c6a-6df707b66bd9"><rect height="123.015625" width="118.1915283203125" y="0" x="0" class="er entityBox"></rect><text style="dominant-baseline: middle; text-anchor: middle; font-size: 12px;" transform="translate(59.09576416015625,13.5078125)" y="0" x="0" id="text-entity-ContactInfo-db7f1dcf-9339-5cf2-9c6a-6df707b66bd9" class="er entityLabel">ContactInfo</text><rect height="24" width="37.4693603515625" y="27.015625" x="0" class="er attributeBoxOdd"></rect><text style="dominant-baseline: middle; font-size: 10.2px;" transform="translate(5,39.015625)" y="0" x="0" id="text-entity-ContactInfo-db7f1dcf-9339-5cf2-9c6a-6df707b66bd9-attr-1-type" class="er entityLabel">int</text><rect height="24" width="57.59375" y="27.015625" x="37.4693603515625" class="er attributeBoxOdd"></rect><text style="dominant-baseline: middle; font-size: 10.2px;" transform="translate(42.4693603515625,39.015625)" y="0" x="0" id="text-entity-ContactInfo-db7f1dcf-9339-5cf2-9c6a-6df707b66bd9-attr-1-name" class="er entityLabel">Id</text><rect height="24" width="23.12841796875" y="27.015625" x="95.0631103515625" class="er attributeBoxOdd"></rect><text style="dominant-baseline: middle; font-size: 10.2px;" transform="translate(100.0631103515625,39.015625)" y="0" x="0" id="text-entity-ContactInfo-db7f1dcf-9339-5cf2-9c6a-6df707b66bd9-attr-1-key" class="er entityLabel">PK</text><rect height="24" width="37.4693603515625" y="51.015625" x="0" class="er attributeBoxEven"></rect><text style="dominant-baseline: middle; font-size: 10.2px;" transform="translate(5,63.015625)" y="0" x="0" id="text-entity-ContactInfo-db7f1dcf-9339-5cf2-9c6a-6df707b66bd9-attr-2-type" class="er entityLabel">string</text><rect height="24" width="57.59375" y="51.015625" x="37.4693603515625" class="er attributeBoxEven"></rect><text style="dominant-baseline: middle; font-size: 10.2px;" transform="translate(42.4693603515625,63.015625)" y="0" x="0" id="text-entity-ContactInfo-db7f1dcf-9339-5cf2-9c6a-6df707b66bd9-attr-2-name" class="er entityLabel">Email</text><rect height="24" width="23.12841796875" y="51.015625" x="95.0631103515625" class="er attributeBoxEven"></rect><text style="dominant-baseline: middle; font-size: 10.2px;" transform="translate(100.0631103515625,63.015625)" y="0" x="0" id="text-entity-ContactInfo-db7f1dcf-9339-5cf2-9c6a-6df707b66bd9-attr-2-key" class="er entityLabel"></text><rect height="24" width="37.4693603515625" y="75.015625" x="0" class="er attributeBoxOdd"></rect><text style="dominant-baseline: middle; font-size: 10.2px;" transform="translate(5,87.015625)" y="0" x="0" id="text-entity-ContactInfo-db7f1dcf-9339-5cf2-9c6a-6df707b66bd9-attr-3-type" class="er entityLabel">string</text><rect height="24" width="57.59375" y="75.015625" x="37.4693603515625" class="er attributeBoxOdd"></rect><text style="dominant-baseline: middle; font-size: 10.2px;" transform="translate(42.4693603515625,87.015625)" y="0" x="0" id="text-entity-ContactInfo-db7f1dcf-9339-5cf2-9c6a-6df707b66bd9-attr-3-name" class="er entityLabel">Phone</text><rect height="24" width="23.12841796875" y="75.015625" x="95.0631103515625" class="er attributeBoxOdd"></rect><text style="dominant-baseline: middle; font-size: 10.2px;" transform="translate(100.0631103515625,87.015625)" y="0" x="0" id="text-entity-ContactInfo-db7f1dcf-9339-5cf2-9c6a-6df707b66bd9-attr-3-key" class="er entityLabel"></text><rect height="24" width="37.4693603515625" y="99.015625" x="0" class="er attributeBoxEven"></rect><text style="dominant-baseline: middle; font-size: 10.2px;" transform="translate(5,111.015625)" y="0" x="0" id="text-entity-ContactInfo-db7f1dcf-9339-5cf2-9c6a-6df707b66bd9-attr-4-type" class="er entityLabel">int</text><rect height="24" width="57.59375" y="99.015625" x="37.4693603515625" class="er attributeBoxEven"></rect><text style="dominant-baseline: middle; font-size: 10.2px;" transform="translate(42.4693603515625,111.015625)" y="0" x="0" id="text-entity-ContactInfo-db7f1dcf-9339-5cf2-9c6a-6df707b66bd9-attr-4-name" class="er entityLabel">AddressId</text><rect height="24" width="23.12841796875" y="99.015625" x="95.0631103515625" class="er attributeBoxEven"></rect><text style="dominant-baseline: middle; font-size: 10.2px;" transform="translate(100.0631103515625,111.015625)" y="0" x="0" id="text-entity-ContactInfo-db7f1dcf-9339-5cf2-9c6a-6df707b66bd9-attr-4-key" class="er entityLabel">FK</text></g><g transform="translate(277.20367431640625,490.03125 )" id="entity-Organisator-09704bcf-78a5-57a8-bccd-b7e2a2005320"><rect height="99.015625" width="134.9259033203125" y="0" x="0" class="er entityBox"></rect><text style="dominant-baseline: middle; text-anchor: middle; font-size: 12px;" transform="translate(67.46295166015625,13.5078125)" y="0" x="0" id="text-entity-Organisator-09704bcf-78a5-57a8-bccd-b7e2a2005320" class="er entityLabel">Organisator</text><rect height="24" width="37.4693603515625" y="27.015625" x="0" class="er attributeBoxOdd"></rect><text style="dominant-baseline: middle; font-size: 10.2px;" transform="translate(5,39.015625)" y="0" x="0" id="text-entity-Organisator-09704bcf-78a5-57a8-bccd-b7e2a2005320-attr-1-type" class="er entityLabel">int</text><rect height="24" width="74.328125" y="27.015625" x="37.4693603515625" class="er attributeBoxOdd"></rect><text style="dominant-baseline: middle; font-size: 10.2px;" transform="translate(42.4693603515625,39.015625)" y="0" x="0" id="text-entity-Organisator-09704bcf-78a5-57a8-bccd-b7e2a2005320-attr-1-name" class="er entityLabel">Id</text><rect height="24" width="23.12841796875" y="27.015625" x="111.7974853515625" class="er attributeBoxOdd"></rect><text style="dominant-baseline: middle; font-size: 10.2px;" transform="translate(116.7974853515625,39.015625)" y="0" x="0" id="text-entity-Organisator-09704bcf-78a5-57a8-bccd-b7e2a2005320-attr-1-key" class="er entityLabel">PK</text><rect height="24" width="37.4693603515625" y="51.015625" x="0" class="er attributeBoxEven"></rect><text style="dominant-baseline: middle; font-size: 10.2px;" transform="translate(5,63.015625)" y="0" x="0" id="text-entity-Organisator-09704bcf-78a5-57a8-bccd-b7e2a2005320-attr-2-type" class="er entityLabel">string</text><rect height="24" width="74.328125" y="51.015625" x="37.4693603515625" class="er attributeBoxEven"></rect><text style="dominant-baseline: middle; font-size: 10.2px;" transform="translate(42.4693603515625,63.015625)" y="0" x="0" id="text-entity-Organisator-09704bcf-78a5-57a8-bccd-b7e2a2005320-attr-2-name" class="er entityLabel">Name</text><rect height="24" width="23.12841796875" y="51.015625" x="111.7974853515625" class="er attributeBoxEven"></rect><text style="dominant-baseline: middle; font-size: 10.2px;" transform="translate(116.7974853515625,63.015625)" y="0" x="0" id="text-entity-Organisator-09704bcf-78a5-57a8-bccd-b7e2a2005320-attr-2-key" class="er entityLabel"></text><rect height="24" width="37.4693603515625" y="75.015625" x="0" class="er attributeBoxOdd"></rect><text style="dominant-baseline: middle; font-size: 10.2px;" transform="translate(5,87.015625)" y="0" x="0" id="text-entity-Organisator-09704bcf-78a5-57a8-bccd-b7e2a2005320-attr-3-type" class="er entityLabel">int</text><rect height="24" width="74.328125" y="75.015625" x="37.4693603515625" class="er attributeBoxOdd"></rect><text style="dominant-baseline: middle; font-size: 10.2px;" transform="translate(42.4693603515625,87.015625)" y="0" x="0" id="text-entity-Organisator-09704bcf-78a5-57a8-bccd-b7e2a2005320-attr-3-name" class="er entityLabel">ContactInfoId</text><rect height="24" width="23.12841796875" y="75.015625" x="111.7974853515625" class="er attributeBoxOdd"></rect><text style="dominant-baseline: middle; font-size: 10.2px;" transform="translate(116.7974853515625,87.015625)" y="0" x="0" id="text-entity-Organisator-09704bcf-78a5-57a8-bccd-b7e2a2005320-attr-3-key" class="er entityLabel">FK</text></g><g transform="translate(30.49542236328125,785.046875 )" id="entity-Klant-1a81d294-7ad2-5e80-8dda-60877a9af8fd"><rect height="99.015625" width="134.9259033203125" y="0" x="0" class="er entityBox"></rect><text style="dominant-baseline: middle; text-anchor: middle; font-size: 12px;" transform="translate(67.46295166015625,13.5078125)" y="0" x="0" id="text-entity-Klant-1a81d294-7ad2-5e80-8dda-60877a9af8fd" class="er entityLabel">Klant</text><rect height="24" width="37.4693603515625" y="27.015625" x="0" class="er attributeBoxOdd"></rect><text style="dominant-baseline: middle; font-size: 10.2px;" transform="translate(5,39.015625)" y="0" x="0" id="text-entity-Klant-1a81d294-7ad2-5e80-8dda-60877a9af8fd-attr-1-type" class="er entityLabel">int</text><rect height="24" width="74.328125" y="27.015625" x="37.4693603515625" class="er attributeBoxOdd"></rect><text style="dominant-baseline: middle; font-size: 10.2px;" transform="translate(42.4693603515625,39.015625)" y="0" x="0" id="text-entity-Klant-1a81d294-7ad2-5e80-8dda-60877a9af8fd-attr-1-name" class="er entityLabel">Id</text><rect height="24" width="23.12841796875" y="27.015625" x="111.7974853515625" class="er attributeBoxOdd"></rect><text style="dominant-baseline: middle; font-size: 10.2px;" transform="translate(116.7974853515625,39.015625)" y="0" x="0" id="text-entity-Klant-1a81d294-7ad2-5e80-8dda-60877a9af8fd-attr-1-key" class="er entityLabel">PK</text><rect height="24" width="37.4693603515625" y="51.015625" x="0" class="er attributeBoxEven"></rect><text style="dominant-baseline: middle; font-size: 10.2px;" transform="translate(5,63.015625)" y="0" x="0" id="text-entity-Klant-1a81d294-7ad2-5e80-8dda-60877a9af8fd-attr-2-type" class="er entityLabel">string</text><rect height="24" width="74.328125" y="51.015625" x="37.4693603515625" class="er attributeBoxEven"></rect><text style="dominant-baseline: middle; font-size: 10.2px;" transform="translate(42.4693603515625,63.015625)" y="0" x="0" id="text-entity-Klant-1a81d294-7ad2-5e80-8dda-60877a9af8fd-attr-2-name" class="er entityLabel">Name</text><rect height="24" width="23.12841796875" y="51.015625" x="111.7974853515625" class="er attributeBoxEven"></rect><text style="dominant-baseline: middle; font-size: 10.2px;" transform="translate(116.7974853515625,63.015625)" y="0" x="0" id="text-entity-Klant-1a81d294-7ad2-5e80-8dda-60877a9af8fd-attr-2-key" class="er entityLabel"></text><rect height="24" width="37.4693603515625" y="75.015625" x="0" class="er attributeBoxOdd"></rect><text style="dominant-baseline: middle; font-size: 10.2px;" transform="translate(5,87.015625)" y="0" x="0" id="text-entity-Klant-1a81d294-7ad2-5e80-8dda-60877a9af8fd-attr-3-type" class="er entityLabel">int</text><rect height="24" width="74.328125" y="75.015625" x="37.4693603515625" class="er attributeBoxOdd"></rect><text style="dominant-baseline: middle; font-size: 10.2px;" transform="translate(42.4693603515625,87.015625)" y="0" x="0" id="text-entity-Klant-1a81d294-7ad2-5e80-8dda-60877a9af8fd-attr-3-name" class="er entityLabel">ContactInfoId</text><rect height="24" width="23.12841796875" y="75.015625" x="111.7974853515625" class="er attributeBoxOdd"></rect><text style="dominant-baseline: middle; font-size: 10.2px;" transform="translate(116.7974853515625,87.015625)" y="0" x="0" id="text-entity-Klant-1a81d294-7ad2-5e80-8dda-60877a9af8fd-attr-3-key" class="er entityLabel">FK</text></g><g transform="translate(388.8231506347656,1104.0625 )" id="entity-Member-da0843c3-d2cb-5701-b506-40a0471bbb02"><rect height="123.015625" width="111.68695068359375" y="0" x="0" class="er entityBox"></rect><text style="dominant-baseline: middle; text-anchor: middle; font-size: 12px;" transform="translate(55.843475341796875,13.5078125)" y="0" x="0" id="text-entity-Member-da0843c3-d2cb-5701-b506-40a0471bbb02" class="er entityLabel">Member</text><rect height="24" width="37.4693603515625" y="27.015625" x="0" class="er attributeBoxOdd"></rect><text style="dominant-baseline: middle; font-size: 10.2px;" transform="translate(5,39.015625)" y="0" x="0" id="text-entity-Member-da0843c3-d2cb-5701-b506-40a0471bbb02-attr-1-type" class="er entityLabel">int</text><rect height="24" width="51.08917236328125" y="27.015625" x="37.4693603515625" class="er attributeBoxOdd"></rect><text style="dominant-baseline: middle; font-size: 10.2px;" transform="translate(42.4693603515625,39.015625)" y="0" x="0" id="text-entity-Member-da0843c3-d2cb-5701-b506-40a0471bbb02-attr-1-name" class="er entityLabel">Id</text><rect height="24" width="23.12841796875" y="27.015625" x="88.55853271484375" class="er attributeBoxOdd"></rect><text style="dominant-baseline: middle; font-size: 10.2px;" transform="translate(93.55853271484375,39.015625)" y="0" x="0" id="text-entity-Member-da0843c3-d2cb-5701-b506-40a0471bbb02-attr-1-key" class="er entityLabel">PK</text><rect height="24" width="37.4693603515625" y="51.015625" x="0" class="er attributeBoxEven"></rect><text style="dominant-baseline: middle; font-size: 10.2px;" transform="translate(5,63.015625)" y="0" x="0" id="text-entity-Member-da0843c3-d2cb-5701-b506-40a0471bbb02-attr-2-type" class="er entityLabel">string</text><rect height="24" width="51.08917236328125" y="51.015625" x="37.4693603515625" class="er attributeBoxEven"></rect><text style="dominant-baseline: middle; font-size: 10.2px;" transform="translate(42.4693603515625,63.015625)" y="0" x="0" id="text-entity-Member-da0843c3-d2cb-5701-b506-40a0471bbb02-attr-2-name" class="er entityLabel">Name</text><rect height="24" width="23.12841796875" y="51.015625" x="88.55853271484375" class="er attributeBoxEven"></rect><text style="dominant-baseline: middle; font-size: 10.2px;" transform="translate(93.55853271484375,63.015625)" y="0" x="0" id="text-entity-Member-da0843c3-d2cb-5701-b506-40a0471bbb02-attr-2-key" class="er entityLabel"></text><rect height="24" width="37.4693603515625" y="75.015625" x="0" class="er attributeBoxOdd"></rect><text style="dominant-baseline: middle; font-size: 10.2px;" transform="translate(5,87.015625)" y="0" x="0" id="text-entity-Member-da0843c3-d2cb-5701-b506-40a0471bbb02-attr-3-type" class="er entityLabel">date</text><rect height="24" width="51.08917236328125" y="75.015625" x="37.4693603515625" class="er attributeBoxOdd"></rect><text style="dominant-baseline: middle; font-size: 10.2px;" transform="translate(42.4693603515625,87.015625)" y="0" x="0" id="text-entity-Member-da0843c3-d2cb-5701-b506-40a0471bbb02-attr-3-name" class="er entityLabel">Birthday</text><rect height="24" width="23.12841796875" y="75.015625" x="88.55853271484375" class="er attributeBoxOdd"></rect><text style="dominant-baseline: middle; font-size: 10.2px;" transform="translate(93.55853271484375,87.015625)" y="0" x="0" id="text-entity-Member-da0843c3-d2cb-5701-b506-40a0471bbb02-attr-3-key" class="er entityLabel"></text><rect height="24" width="37.4693603515625" y="99.015625" x="0" class="er attributeBoxEven"></rect><text style="dominant-baseline: middle; font-size: 10.2px;" transform="translate(5,111.015625)" y="0" x="0" id="text-entity-Member-da0843c3-d2cb-5701-b506-40a0471bbb02-attr-4-type" class="er entityLabel">int</text><rect height="24" width="51.08917236328125" y="99.015625" x="37.4693603515625" class="er attributeBoxEven"></rect><text style="dominant-baseline: middle; font-size: 10.2px;" transform="translate(42.4693603515625,111.015625)" y="0" x="0" id="text-entity-Member-da0843c3-d2cb-5701-b506-40a0471bbb02-attr-4-name" class="er entityLabel">KlantId</text><rect height="24" width="23.12841796875" y="99.015625" x="88.55853271484375" class="er attributeBoxEven"></rect><text style="dominant-baseline: middle; font-size: 10.2px;" transform="translate(93.55853271484375,111.015625)" y="0" x="0" id="text-entity-Member-da0843c3-d2cb-5701-b506-40a0471bbb02-attr-4-key" class="er entityLabel">FK</text></g><g transform="translate(265.42132568359375,689.046875 )" id="entity-Aktiviteit-42171173-e446-5317-8fc4-7001bddfbef5"><rect height="291.015625" width="158.4906005859375" y="0" x="0" class="er entityBox"></rect><text style="dominant-baseline: middle; text-anchor: middle; font-size: 12px;" transform="translate(79.24530029296875,13.5078125)" y="0" x="0" id="text-entity-Aktiviteit-42171173-e446-5317-8fc4-7001bddfbef5" class="er entityLabel">Aktiviteit</text><rect height="24" width="52.87994384765625" y="27.015625" x="0" class="er attributeBoxOdd"></rect><text style="dominant-baseline: middle; font-size: 10.2px;" transform="translate(5,39.015625)" y="0" x="0" id="text-entity-Aktiviteit-42171173-e446-5317-8fc4-7001bddfbef5-attr-1-type" class="er entityLabel">int</text><rect height="24" width="82.48223876953125" y="27.015625" x="52.87994384765625" class="er attributeBoxOdd"></rect><text style="dominant-baseline: middle; font-size: 10.2px;" transform="translate(57.87994384765625,39.015625)" y="0" x="0" id="text-entity-Aktiviteit-42171173-e446-5317-8fc4-7001bddfbef5-attr-1-name" class="er entityLabel">Id</text><rect height="24" width="23.12841796875" y="27.015625" x="135.3621826171875" class="er attributeBoxOdd"></rect><text style="dominant-baseline: middle; font-size: 10.2px;" transform="translate(140.3621826171875,39.015625)" y="0" x="0" id="text-entity-Aktiviteit-42171173-e446-5317-8fc4-7001bddfbef5-attr-1-key" class="er entityLabel">PK</text><rect height="24" width="52.87994384765625" y="51.015625" x="0" class="er attributeBoxEven"></rect><text style="dominant-baseline: middle; font-size: 10.2px;" transform="translate(5,63.015625)" y="0" x="0" id="text-entity-Aktiviteit-42171173-e446-5317-8fc4-7001bddfbef5-attr-2-type" class="er entityLabel">string</text><rect height="24" width="82.48223876953125" y="51.015625" x="52.87994384765625" class="er attributeBoxEven"></rect><text style="dominant-baseline: middle; font-size: 10.2px;" transform="translate(57.87994384765625,63.015625)" y="0" x="0" id="text-entity-Aktiviteit-42171173-e446-5317-8fc4-7001bddfbef5-attr-2-name" class="er entityLabel">Description</text><rect height="24" width="23.12841796875" y="51.015625" x="135.3621826171875" class="er attributeBoxEven"></rect><text style="dominant-baseline: middle; font-size: 10.2px;" transform="translate(140.3621826171875,63.015625)" y="0" x="0" id="text-entity-Aktiviteit-42171173-e446-5317-8fc4-7001bddfbef5-attr-2-key" class="er entityLabel"></text><rect height="24" width="52.87994384765625" y="75.015625" x="0" class="er attributeBoxOdd"></rect><text style="dominant-baseline: middle; font-size: 10.2px;" transform="translate(5,87.015625)" y="0" x="0" id="text-entity-Aktiviteit-42171173-e446-5317-8fc4-7001bddfbef5-attr-3-type" class="er entityLabel">string</text><rect height="24" width="82.48223876953125" y="75.015625" x="52.87994384765625" class="er attributeBoxOdd"></rect><text style="dominant-baseline: middle; font-size: 10.2px;" transform="translate(57.87994384765625,87.015625)" y="0" x="0" id="text-entity-Aktiviteit-42171173-e446-5317-8fc4-7001bddfbef5-attr-3-name" class="er entityLabel">Location</text><rect height="24" width="23.12841796875" y="75.015625" x="135.3621826171875" class="er attributeBoxOdd"></rect><text style="dominant-baseline: middle; font-size: 10.2px;" transform="translate(140.3621826171875,87.015625)" y="0" x="0" id="text-entity-Aktiviteit-42171173-e446-5317-8fc4-7001bddfbef5-attr-3-key" class="er entityLabel"></text><rect height="24" width="52.87994384765625" y="99.015625" x="0" class="er attributeBoxEven"></rect><text style="dominant-baseline: middle; font-size: 10.2px;" transform="translate(5,111.015625)" y="0" x="0" id="text-entity-Aktiviteit-42171173-e446-5317-8fc4-7001bddfbef5-attr-4-type" class="er entityLabel">time</text><rect height="24" width="82.48223876953125" y="99.015625" x="52.87994384765625" class="er attributeBoxEven"></rect><text style="dominant-baseline: middle; font-size: 10.2px;" transform="translate(57.87994384765625,111.015625)" y="0" x="0" id="text-entity-Aktiviteit-42171173-e446-5317-8fc4-7001bddfbef5-attr-4-name" class="er entityLabel">Duration</text><rect height="24" width="23.12841796875" y="99.015625" x="135.3621826171875" class="er attributeBoxEven"></rect><text style="dominant-baseline: middle; font-size: 10.2px;" transform="translate(140.3621826171875,111.015625)" y="0" x="0" id="text-entity-Aktiviteit-42171173-e446-5317-8fc4-7001bddfbef5-attr-4-key" class="er entityLabel"></text><rect height="24" width="52.87994384765625" y="123.015625" x="0" class="er attributeBoxOdd"></rect><text style="dominant-baseline: middle; font-size: 10.2px;" transform="translate(5,135.015625)" y="0" x="0" id="text-entity-Aktiviteit-42171173-e446-5317-8fc4-7001bddfbef5-attr-5-type" class="er entityLabel">string</text><rect height="24" width="82.48223876953125" y="123.015625" x="52.87994384765625" class="er attributeBoxOdd"></rect><text style="dominant-baseline: middle; font-size: 10.2px;" transform="translate(57.87994384765625,135.015625)" y="0" x="0" id="text-entity-Aktiviteit-42171173-e446-5317-8fc4-7001bddfbef5-attr-5-name" class="er entityLabel">Name</text><rect height="24" width="23.12841796875" y="123.015625" x="135.3621826171875" class="er attributeBoxOdd"></rect><text style="dominant-baseline: middle; font-size: 10.2px;" transform="translate(140.3621826171875,135.015625)" y="0" x="0" id="text-entity-Aktiviteit-42171173-e446-5317-8fc4-7001bddfbef5-attr-5-key" class="er entityLabel"></text><rect height="24" width="52.87994384765625" y="147.015625" x="0" class="er attributeBoxEven"></rect><text style="dominant-baseline: middle; font-size: 10.2px;" transform="translate(5,159.015625)" y="0" x="0" id="text-entity-Aktiviteit-42171173-e446-5317-8fc4-7001bddfbef5-attr-6-type" class="er entityLabel">datetime</text><rect height="24" width="82.48223876953125" y="147.015625" x="52.87994384765625" class="er attributeBoxEven"></rect><text style="dominant-baseline: middle; font-size: 10.2px;" transform="translate(57.87994384765625,159.015625)" y="0" x="0" id="text-entity-Aktiviteit-42171173-e446-5317-8fc4-7001bddfbef5-attr-6-name" class="er entityLabel">Date</text><rect height="24" width="23.12841796875" y="147.015625" x="135.3621826171875" class="er attributeBoxEven"></rect><text style="dominant-baseline: middle; font-size: 10.2px;" transform="translate(140.3621826171875,159.015625)" y="0" x="0" id="text-entity-Aktiviteit-42171173-e446-5317-8fc4-7001bddfbef5-attr-6-key" class="er entityLabel"></text><rect height="24" width="52.87994384765625" y="171.015625" x="0" class="er attributeBoxOdd"></rect><text style="dominant-baseline: middle; font-size: 10.2px;" transform="translate(5,183.015625)" y="0" x="0" id="text-entity-Aktiviteit-42171173-e446-5317-8fc4-7001bddfbef5-attr-7-type" class="er entityLabel">int</text><rect height="24" width="82.48223876953125" y="171.015625" x="52.87994384765625" class="er attributeBoxOdd"></rect><text style="dominant-baseline: middle; font-size: 10.2px;" transform="translate(57.87994384765625,183.015625)" y="0" x="0" id="text-entity-Aktiviteit-42171173-e446-5317-8fc4-7001bddfbef5-attr-7-name" class="er entityLabel">AvailablePlaces</text><rect height="24" width="23.12841796875" y="171.015625" x="135.3621826171875" class="er attributeBoxOdd"></rect><text style="dominant-baseline: middle; font-size: 10.2px;" transform="translate(140.3621826171875,183.015625)" y="0" x="0" id="text-entity-Aktiviteit-42171173-e446-5317-8fc4-7001bddfbef5-attr-7-key" class="er entityLabel"></text><rect height="24" width="52.87994384765625" y="195.015625" x="0" class="er attributeBoxEven"></rect><text style="dominant-baseline: middle; font-size: 10.2px;" transform="translate(5,207.015625)" y="0" x="0" id="text-entity-Aktiviteit-42171173-e446-5317-8fc4-7001bddfbef5-attr-8-type" class="er entityLabel">float</text><rect height="24" width="82.48223876953125" y="195.015625" x="52.87994384765625" class="er attributeBoxEven"></rect><text style="dominant-baseline: middle; font-size: 10.2px;" transform="translate(57.87994384765625,207.015625)" y="0" x="0" id="text-entity-Aktiviteit-42171173-e446-5317-8fc4-7001bddfbef5-attr-8-name" class="er entityLabel">AdultPrice</text><rect height="24" width="23.12841796875" y="195.015625" x="135.3621826171875" class="er attributeBoxEven"></rect><text style="dominant-baseline: middle; font-size: 10.2px;" transform="translate(140.3621826171875,207.015625)" y="0" x="0" id="text-entity-Aktiviteit-42171173-e446-5317-8fc4-7001bddfbef5-attr-8-key" class="er entityLabel"></text><rect height="24" width="52.87994384765625" y="219.015625" x="0" class="er attributeBoxOdd"></rect><text style="dominant-baseline: middle; font-size: 10.2px;" transform="translate(5,231.015625)" y="0" x="0" id="text-entity-Aktiviteit-42171173-e446-5317-8fc4-7001bddfbef5-attr-9-type" class="er entityLabel">float</text><rect height="24" width="82.48223876953125" y="219.015625" x="52.87994384765625" class="er attributeBoxOdd"></rect><text style="dominant-baseline: middle; font-size: 10.2px;" transform="translate(57.87994384765625,231.015625)" y="0" x="0" id="text-entity-Aktiviteit-42171173-e446-5317-8fc4-7001bddfbef5-attr-9-name" class="er entityLabel">ChildPrice</text><rect height="24" width="23.12841796875" y="219.015625" x="135.3621826171875" class="er attributeBoxOdd"></rect><text style="dominant-baseline: middle; font-size: 10.2px;" transform="translate(140.3621826171875,231.015625)" y="0" x="0" id="text-entity-Aktiviteit-42171173-e446-5317-8fc4-7001bddfbef5-attr-9-key" class="er entityLabel"></text><rect height="24" width="52.87994384765625" y="243.015625" x="0" class="er attributeBoxEven"></rect><text style="dominant-baseline: middle; font-size: 10.2px;" transform="translate(5,255.015625)" y="0" x="0" id="text-entity-Aktiviteit-42171173-e446-5317-8fc4-7001bddfbef5-attr-10-type" class="er entityLabel">float</text><rect height="24" width="82.48223876953125" y="243.015625" x="52.87994384765625" class="er attributeBoxEven"></rect><text style="dominant-baseline: middle; font-size: 10.2px;" transform="translate(57.87994384765625,255.015625)" y="0" x="0" id="text-entity-Aktiviteit-42171173-e446-5317-8fc4-7001bddfbef5-attr-10-name" class="er entityLabel">Discount</text><rect height="24" width="23.12841796875" y="243.015625" x="135.3621826171875" class="er attributeBoxEven"></rect><text style="dominant-baseline: middle; font-size: 10.2px;" transform="translate(140.3621826171875,255.015625)" y="0" x="0" id="text-entity-Aktiviteit-42171173-e446-5317-8fc4-7001bddfbef5-attr-10-key" class="er entityLabel"></text><rect height="24" width="52.87994384765625" y="267.015625" x="0" class="er attributeBoxOdd"></rect><text style="dominant-baseline: middle; font-size: 10.2px;" transform="translate(5,279.015625)" y="0" x="0" id="text-entity-Aktiviteit-42171173-e446-5317-8fc4-7001bddfbef5-attr-11-type" class="er entityLabel">int</text><rect height="24" width="82.48223876953125" y="267.015625" x="52.87994384765625" class="er attributeBoxOdd"></rect><text style="dominant-baseline: middle; font-size: 10.2px;" transform="translate(57.87994384765625,279.015625)" y="0" x="0" id="text-entity-Aktiviteit-42171173-e446-5317-8fc4-7001bddfbef5-attr-11-name" class="er entityLabel">OrganisatorId</text><rect height="24" width="23.12841796875" y="267.015625" x="135.3621826171875" class="er attributeBoxOdd"></rect><text style="dominant-baseline: middle; font-size: 10.2px;" transform="translate(140.3621826171875,279.015625)" y="0" x="0" id="text-entity-Aktiviteit-42171173-e446-5317-8fc4-7001bddfbef5-attr-11-key" class="er entityLabel">FK</text></g><g transform="translate(20,1080.0625 )" id="entity-Inschrijving-e690aab1-bddb-5531-b719-46653adb67d9"><rect height="171.015625" width="155.916748046875" y="0" x="0" class="er entityBox"></rect><text style="dominant-baseline: middle; text-anchor: middle; font-size: 12px;" transform="translate(77.9583740234375,13.5078125)" y="0" x="0" id="text-entity-Inschrijving-e690aab1-bddb-5531-b719-46653adb67d9" class="er entityLabel">Inschrijving</text><rect height="24" width="31.788330078125" y="27.015625" x="0" class="er attributeBoxOdd"></rect><text style="dominant-baseline: middle; font-size: 10.2px;" transform="translate(5,39.015625)" y="0" x="0" id="text-entity-Inschrijving-e690aab1-bddb-5531-b719-46653adb67d9-attr-1-type" class="er entityLabel">int</text><rect height="24" width="101" y="27.015625" x="31.788330078125" class="er attributeBoxOdd"></rect><text style="dominant-baseline: middle; font-size: 10.2px;" transform="translate(36.788330078125,39.015625)" y="0" x="0" id="text-entity-Inschrijving-e690aab1-bddb-5531-b719-46653adb67d9-attr-1-name" class="er entityLabel">Id</text><rect height="24" width="23.12841796875" y="27.015625" x="132.788330078125" class="er attributeBoxOdd"></rect><text style="dominant-baseline: middle; font-size: 10.2px;" transform="translate(137.788330078125,39.015625)" y="0" x="0" id="text-entity-Inschrijving-e690aab1-bddb-5531-b719-46653adb67d9-attr-1-key" class="er entityLabel">PK</text><rect height="24" width="31.788330078125" y="51.015625" x="0" class="er attributeBoxEven"></rect><text style="dominant-baseline: middle; font-size: 10.2px;" transform="translate(5,63.015625)" y="0" x="0" id="text-entity-Inschrijving-e690aab1-bddb-5531-b719-46653adb67d9-attr-2-type" class="er entityLabel">int</text><rect height="24" width="101" y="51.015625" x="31.788330078125" class="er attributeBoxEven"></rect><text style="dominant-baseline: middle; font-size: 10.2px;" transform="translate(36.788330078125,63.015625)" y="0" x="0" id="text-entity-Inschrijving-e690aab1-bddb-5531-b719-46653adb67d9-attr-2-name" class="er entityLabel">CustomerId</text><rect height="24" width="23.12841796875" y="51.015625" x="132.788330078125" class="er attributeBoxEven"></rect><text style="dominant-baseline: middle; font-size: 10.2px;" transform="translate(137.788330078125,63.015625)" y="0" x="0" id="text-entity-Inschrijving-e690aab1-bddb-5531-b719-46653adb67d9-attr-2-key" class="er entityLabel">FK</text><rect height="24" width="31.788330078125" y="75.015625" x="0" class="er attributeBoxOdd"></rect><text style="dominant-baseline: middle; font-size: 10.2px;" transform="translate(5,87.015625)" y="0" x="0" id="text-entity-Inschrijving-e690aab1-bddb-5531-b719-46653adb67d9-attr-3-type" class="er entityLabel">int</text><rect height="24" width="101" y="75.015625" x="31.788330078125" class="er attributeBoxOdd"></rect><text style="dominant-baseline: middle; font-size: 10.2px;" transform="translate(36.788330078125,87.015625)" y="0" x="0" id="text-entity-Inschrijving-e690aab1-bddb-5531-b719-46653adb67d9-attr-3-name" class="er entityLabel">ActivityId</text><rect height="24" width="23.12841796875" y="75.015625" x="132.788330078125" class="er attributeBoxOdd"></rect><text style="dominant-baseline: middle; font-size: 10.2px;" transform="translate(137.788330078125,87.015625)" y="0" x="0" id="text-entity-Inschrijving-e690aab1-bddb-5531-b719-46653adb67d9-attr-3-key" class="er entityLabel">FK</text><rect height="24" width="31.788330078125" y="99.015625" x="0" class="er attributeBoxEven"></rect><text style="dominant-baseline: middle; font-size: 10.2px;" transform="translate(5,111.015625)" y="0" x="0" id="text-entity-Inschrijving-e690aab1-bddb-5531-b719-46653adb67d9-attr-4-type" class="er entityLabel">int</text><rect height="24" width="101" y="99.015625" x="31.788330078125" class="er attributeBoxEven"></rect><text style="dominant-baseline: middle; font-size: 10.2px;" transform="translate(36.788330078125,111.015625)" y="0" x="0" id="text-entity-Inschrijving-e690aab1-bddb-5531-b719-46653adb67d9-attr-4-name" class="er entityLabel">NumberOfAdults</text><rect height="24" width="23.12841796875" y="99.015625" x="132.788330078125" class="er attributeBoxEven"></rect><text style="dominant-baseline: middle; font-size: 10.2px;" transform="translate(137.788330078125,111.015625)" y="0" x="0" id="text-entity-Inschrijving-e690aab1-bddb-5531-b719-46653adb67d9-attr-4-key" class="er entityLabel"></text><rect height="24" width="31.788330078125" y="123.015625" x="0" class="er attributeBoxOdd"></rect><text style="dominant-baseline: middle; font-size: 10.2px;" transform="translate(5,135.015625)" y="0" x="0" id="text-entity-Inschrijving-e690aab1-bddb-5531-b719-46653adb67d9-attr-5-type" class="er entityLabel">int</text><rect height="24" width="101" y="123.015625" x="31.788330078125" class="er attributeBoxOdd"></rect><text style="dominant-baseline: middle; font-size: 10.2px;" transform="translate(36.788330078125,135.015625)" y="0" x="0" id="text-entity-Inschrijving-e690aab1-bddb-5531-b719-46653adb67d9-attr-5-name" class="er entityLabel">NumberOfChildren</text><rect height="24" width="23.12841796875" y="123.015625" x="132.788330078125" class="er attributeBoxOdd"></rect><text style="dominant-baseline: middle; font-size: 10.2px;" transform="translate(137.788330078125,135.015625)" y="0" x="0" id="text-entity-Inschrijving-e690aab1-bddb-5531-b719-46653adb67d9-attr-5-key" class="er entityLabel"></text><rect height="24" width="31.788330078125" y="147.015625" x="0" class="er attributeBoxEven"></rect><text style="dominant-baseline: middle; font-size: 10.2px;" transform="translate(5,159.015625)" y="0" x="0" id="text-entity-Inschrijving-e690aab1-bddb-5531-b719-46653adb67d9-attr-6-type" class="er entityLabel">float</text><rect height="24" width="101" y="147.015625" x="31.788330078125" class="er attributeBoxEven"></rect><text style="dominant-baseline: middle; font-size: 10.2px;" transform="translate(36.788330078125,159.015625)" y="0" x="0" id="text-entity-Inschrijving-e690aab1-bddb-5531-b719-46653adb67d9-attr-6-name" class="er entityLabel">TotalPrice</text><rect height="24" width="23.12841796875" y="147.015625" x="132.788330078125" class="er attributeBoxEven"></rect><text style="dominant-baseline: middle; font-size: 10.2px;" transform="translate(137.788330078125,159.015625)" y="0" x="0" id="text-entity-Inschrijving-e690aab1-bddb-5531-b719-46653adb67d9-attr-6-key" class="er entityLabel"></text></g><rect height="17.015625" width="20.02734375" y="208.5081787109375" x="144.39833068847656" class="er relationshipLabelBox"></rect><text style="text-anchor: middle; dominant-baseline: middle; font-size: 12px;" y="217.0159912109375" x="154.41200256347656" id="rel1" class="er relationshipLabel">has</text><rect height="17.015625" width="20.02734375" y="405.10675048828125" x="285.3505554199219" class="er relationshipLabelBox"></rect><text style="text-anchor: middle; dominant-baseline: middle; font-size: 12px;" y="413.61456298828125" x="295.3642272949219" id="rel2" class="er relationshipLabel">has</text><rect height="17.015625" width="20.02734375" y="576.9315795898438" x="87.94432830810547" class="er relationshipLabelBox"></rect><text style="text-anchor: middle; dominant-baseline: middle; font-size: 12px;" y="585.4393920898438" x="97.95800018310547" id="rel3" class="er relationshipLabel">has</text><rect height="17.015625" width="20.02734375" y="959.0745849609375" x="318.7854309082031" class="er relationshipLabelBox"></rect><text style="text-anchor: middle; dominant-baseline: middle; font-size: 12px;" y="967.5823974609375" x="328.7991027832031" id="rel4" class="er relationshipLabel">has</text><rect height="17.015625" width="54.05859375" y="630.5391845703125" x="317.6376953125" class="er relationshipLabelBox"></rect><text style="text-anchor: middle; dominant-baseline: middle; font-size: 12px;" y="639.0469970703125" x="344.6669921875" id="rel5" class="er relationshipLabel">organizes</text><rect height="17.015625" width="48.826171875" y="972.7327880859375" x="25.72408676147461" class="er relationshipLabelBox"></rect><text style="text-anchor: middle; dominant-baseline: middle; font-size: 12px;" y="981.2406005859375" x="50.13717269897461" id="rel6" class="er relationshipLabel">registers</text><rect height="17.015625" width="46.60546875" y="1043.442138671875" x="222.16433715820312" class="er relationshipLabelBox"></rect><text style="text-anchor: middle; dominant-baseline: middle; font-size: 12px;" y="1051.949951171875" x="245.46707153320312" id="rel7" class="er relationshipLabel">includes</text></svg>