<svg aria-roledescription="er" role="graphics-document document" viewBox="0 0 421.7970275878906 1247.078125" height="1247.078125" xmlns="http://www.w3.org/2000/svg" width="421.7970275878906" id="tmpMermaidElement1844"><style>svg {background: white;}#tmpMermaidElement1844{font-family:"trebuchet ms",verdana,arial,sans-serif;font-size:16px;fill:#333;}#tmpMermaidElement1844 .error-icon{fill:#552222;}#tmpMermaidElement1844 .error-text{fill:#552222;stroke:#552222;}#tmpMermaidElement1844 .edge-thickness-normal{stroke-width:2px;}#tmpMermaidElement1844 .edge-thickness-thick{stroke-width:3.5px;}#tmpMermaidElement1844 .edge-pattern-solid{stroke-dasharray:0;}#tmpMermaidElement1844 .edge-pattern-dashed{stroke-dasharray:3;}#tmpMermaidElement1844 .edge-pattern-dotted{stroke-dasharray:2;}#tmpMermaidElement1844 .marker{fill:#333333;stroke:#333333;}#tmpMermaidElement1844 .marker.cross{stroke:#333333;}#tmpMermaidElement1844 svg{font-family:"trebuchet ms",verdana,arial,sans-serif;font-size:16px;}#tmpMermaidElement1844 .entityBox{fill:#ECECFF;stroke:#9370DB;}#tmpMermaidElement1844 .attributeBoxOdd{fill:#ffffff;stroke:#9370DB;}#tmpMermaidElement1844 .attributeBoxEven{fill:#f2f2f2;stroke:#9370DB;}#tmpMermaidElement1844 .relationshipLabelBox{fill:hsl(80, 100%, 96.2745098039%);opacity:0.7;background-color:hsl(80, 100%, 96.2745098039%);}#tmpMermaidElement1844 .relationshipLabelBox rect{opacity:0.5;}#tmpMermaidElement1844 .relationshipLine{stroke:#333333;}#tmpMermaidElement1844 .entityTitleText{text-anchor:middle;font-size:18px;fill:#333;}#tmpMermaidElement1844 #MD_PARENT_START{fill:#f5f5f5!important;stroke:#333333!important;stroke-width:1;}#tmpMermaidElement1844 #MD_PARENT_END{fill:#f5f5f5!important;stroke:#333333!important;stroke-width:1;}#tmpMermaidElement1844 :root{--mermaid-font-family:"trebuchet ms",verdana,arial,sans-serif;}</style><g></g><defs><marker orient="auto" markerHeight="240" markerWidth="190" refY="7" refX="0" id="MD_PARENT_START"><path d="M 18,7 L9,13 L1,7 L9,1 Z"></path></marker></defs><defs><marker orient="auto" markerHeight="28" markerWidth="20" refY="7" refX="19" id="MD_PARENT_END"><path d="M 18,7 L9,13 L1,7 L9,1 Z"></path></marker></defs><defs><marker orient="auto" markerHeight="18" markerWidth="18" refY="9" refX="0" id="ONLY_ONE_START"><path d="M9,0 L9,18 M15,0 L15,18" fill="none" stroke="gray"></path></marker></defs><defs><marker orient="auto" markerHeight="18" markerWidth="18" refY="9" refX="18" id="ONLY_ONE_END"><path d="M3,0 L3,18 M9,0 L9,18" fill="none" stroke="gray"></path></marker></defs><defs><marker orient="auto" markerHeight="18" markerWidth="30" refY="9" refX="0" id="ZERO_OR_ONE_START"><circle r="6" cy="9" cx="21" fill="white" stroke="gray"></circle><path d="M9,0 L9,18" fill="none" stroke="gray"></path></marker></defs><defs><marker orient="auto" markerHeight="18" markerWidth="30" refY="9" refX="30" id="ZERO_OR_ONE_END"><circle r="6" cy="9" cx="9" fill="white" stroke="gray"></circle><path d="M21,0 L21,18" fill="none" stroke="gray"></path></marker></defs><defs><marker orient="auto" markerHeight="36" markerWidth="45" refY="18" refX="18" id="ONE_OR_MORE_START"><path d="M0,18 Q 18,0 36,18 Q 18,36 0,18 M42,9 L42,27" fill="none" stroke="gray"></path></marker></defs><defs><marker orient="auto" markerHeight="36" markerWidth="45" refY="18" refX="27" id="ONE_OR_MORE_END"><path d="M3,9 L3,27 M9,18 Q27,0 45,18 Q27,36 9,18" fill="none" stroke="gray"></path></marker></defs><defs><marker orient="auto" markerHeight="36" markerWidth="57" refY="18" refX="18" id="ZERO_OR_MORE_START"><circle r="6" cy="18" cx="48" fill="white" stroke="gray"></circle><path d="M0,18 Q18,0 36,18 Q18,36 0,18" fill="none" stroke="gray"></path></marker></defs><defs><marker orient="auto" markerHeight="36" markerWidth="57" refY="18" refX="39" id="ZERO_OR_MORE_END"><circle r="6" cy="18" cx="9" fill="white" stroke="gray"></circle><path d="M21,18 Q39,0 57,18 Q39,36 21,18" fill="none" stroke="gray"></path></marker></defs><path style="stroke: gray; fill: none;" marker-start="url(#ONLY_ONE_START)" marker-end="url(#ZERO_OR_MORE_END)" d="M205.007,167.016L205.007,175.349C205.007,183.682,205.007,200.349,205.007,217.016C205.007,233.682,205.007,250.349,205.007,258.682L205.007,267.016" class="er relationshipLine"></path><path style="stroke: gray; fill: none;" marker-start="url(#ONLY_ONE_START)" marker-end="url(#ZERO_OR_MORE_END)" d="M264.103,384.584L273.845,393.825C283.586,403.067,303.069,421.549,312.81,441.123C322.552,460.698,322.552,481.365,322.552,491.698L322.552,502.031" class="er relationshipLine"></path><path style="stroke: gray; fill: none;" marker-start="url(#ONLY_ONE_START)" marker-end="url(#ZERO_OR_MORE_END)" d="M145.912,384.584L136.17,393.825C126.429,403.067,106.946,421.549,97.204,439.123C87.463,456.698,87.463,473.365,87.463,481.698L87.463,490.031" class="er relationshipLine"></path><path style="stroke: gray; fill: none;" marker-start="url(#ONLY_ONE_START)" marker-end="url(#ZERO_OR_MORE_END)" d="M87.463,613.047L87.463,621.38C87.463,629.714,87.463,646.38,87.463,677.047C87.463,707.714,87.463,752.38,87.463,774.714L87.463,797.047" class="er relationshipLine"></path><path style="stroke: gray; fill: none;" marker-start="url(#ONLY_ONE_START)" marker-end="url(#ZERO_OR_MORE_END)" d="M322.552,601.047L322.552,611.38C322.552,621.714,322.552,642.38,322.552,661.047C322.552,679.714,322.552,696.38,322.552,704.714L322.552,713.047" class="er relationshipLine"></path><path style="stroke: gray; fill: none;" marker-start="url(#ONLY_ONE_START)" marker-end="url(#ZERO_OR_MORE_END)" d="M87.463,920.063L87.463,942.396C87.463,964.729,87.463,1009.396,97.518,1041.268C107.572,1073.139,127.682,1092.216,137.736,1101.754L147.791,1111.293" class="er relationshipLine"></path><path style="stroke: gray; fill: none;" marker-start="url(#ONLY_ONE_START)" marker-end="url(#ZERO_OR_MORE_END)" d="M322.552,1004.063L322.552,1012.396C322.552,1020.729,322.552,1037.396,312.497,1055.268C302.442,1073.139,282.333,1092.216,272.278,1101.754L262.224,1111.293" class="er relationshipLine"></path><g transform="translate(134.32540893554688,20 )" id="entity-Address-c76279a2-ae7d-51c9-9b7a-8d5514196196"><rect height="147.015625" width="141.36386108398438" y="0" x="0" class="er entityBox"></rect><text style="dominant-baseline: middle; text-anchor: middle; font-size: 12px;" transform="translate(70.68193054199219,13.5078125)" y="0" x="0" id="text-entity-Address-c76279a2-ae7d-51c9-9b7a-8d5514196196" class="er entityLabel">Address</text><rect height="24" width="37.4693603515625" y="27.015625" x="0" class="er attributeBoxOdd"></rect><text style="dominant-baseline: middle; font-size: 10.2px;" transform="translate(5,39.015625)" y="0" x="0" id="text-entity-Address-c76279a2-ae7d-51c9-9b7a-8d5514196196-attr-1-type" class="er entityLabel">int</text><rect height="24" width="80.76608276367188" y="27.015625" x="37.4693603515625" class="er attributeBoxOdd"></rect><text style="dominant-baseline: middle; font-size: 10.2px;" transform="translate(42.4693603515625,39.015625)" y="0" x="0" id="text-entity-Address-c76279a2-ae7d-51c9-9b7a-8d5514196196-attr-1-name" class="er entityLabel">Id</text><rect height="24" width="23.12841796875" y="27.015625" x="118.23544311523438" class="er attributeBoxOdd"></rect><text style="dominant-baseline: middle; font-size: 10.2px;" transform="translate(123.23544311523438,39.015625)" y="0" x="0" id="text-entity-Address-c76279a2-ae7d-51c9-9b7a-8d5514196196-attr-1-key" class="er entityLabel">PK</text><rect height="24" width="37.4693603515625" y="51.015625" x="0" class="er attributeBoxEven"></rect><text style="dominant-baseline: middle; font-size: 10.2px;" transform="translate(5,63.015625)" y="0" x="0" id="text-entity-Address-c76279a2-ae7d-51c9-9b7a-8d5514196196-attr-2-type" class="er entityLabel">string</text><rect height="24" width="80.76608276367188" y="51.015625" x="37.4693603515625" class="er attributeBoxEven"></rect><text style="dominant-baseline: middle; font-size: 10.2px;" transform="translate(42.4693603515625,63.015625)" y="0" x="0" id="text-entity-Address-c76279a2-ae7d-51c9-9b7a-8d5514196196-attr-2-name" class="er entityLabel">City</text><rect height="24" width="23.12841796875" y="51.015625" x="118.23544311523438" class="er attributeBoxEven"></rect><text style="dominant-baseline: middle; font-size: 10.2px;" transform="translate(123.23544311523438,63.015625)" y="0" x="0" id="text-entity-Address-c76279a2-ae7d-51c9-9b7a-8d5514196196-attr-2-key" class="er entityLabel"></text><rect height="24" width="37.4693603515625" y="75.015625" x="0" class="er attributeBoxOdd"></rect><text style="dominant-baseline: middle; font-size: 10.2px;" transform="translate(5,87.015625)" y="0" x="0" id="text-entity-Address-c76279a2-ae7d-51c9-9b7a-8d5514196196-attr-3-type" class="er entityLabel">string</text><rect height="24" width="80.76608276367188" y="75.015625" x="37.4693603515625" class="er attributeBoxOdd"></rect><text style="dominant-baseline: middle; font-size: 10.2px;" transform="translate(42.4693603515625,87.015625)" y="0" x="0" id="text-entity-Address-c76279a2-ae7d-51c9-9b7a-8d5514196196-attr-3-name" class="er entityLabel">Street</text><rect height="24" width="23.12841796875" y="75.015625" x="118.23544311523438" class="er attributeBoxOdd"></rect><text style="dominant-baseline: middle; font-size: 10.2px;" transform="translate(123.23544311523438,87.015625)" y="0" x="0" id="text-entity-Address-c76279a2-ae7d-51c9-9b7a-8d5514196196-attr-3-key" class="er entityLabel"></text><rect height="24" width="37.4693603515625" y="99.015625" x="0" class="er attributeBoxEven"></rect><text style="dominant-baseline: middle; font-size: 10.2px;" transform="translate(5,111.015625)" y="0" x="0" id="text-entity-Address-c76279a2-ae7d-51c9-9b7a-8d5514196196-attr-4-type" class="er entityLabel">string</text><rect height="24" width="80.76608276367188" y="99.015625" x="37.4693603515625" class="er attributeBoxEven"></rect><text style="dominant-baseline: middle; font-size: 10.2px;" transform="translate(42.4693603515625,111.015625)" y="0" x="0" id="text-entity-Address-c76279a2-ae7d-51c9-9b7a-8d5514196196-attr-4-name" class="er entityLabel">PostalCode</text><rect height="24" width="23.12841796875" y="99.015625" x="118.23544311523438" class="er attributeBoxEven"></rect><text style="dominant-baseline: middle; font-size: 10.2px;" transform="translate(123.23544311523438,111.015625)" y="0" x="0" id="text-entity-Address-c76279a2-ae7d-51c9-9b7a-8d5514196196-attr-4-key" class="er entityLabel"></text><rect height="24" width="37.4693603515625" y="123.015625" x="0" class="er attributeBoxOdd"></rect><text style="dominant-baseline: middle; font-size: 10.2px;" transform="translate(5,135.015625)" y="0" x="0" id="text-entity-Address-c76279a2-ae7d-51c9-9b7a-8d5514196196-attr-5-type" class="er entityLabel">string</text><rect height="24" width="80.76608276367188" y="123.015625" x="37.4693603515625" class="er attributeBoxOdd"></rect><text style="dominant-baseline: middle; font-size: 10.2px;" transform="translate(42.4693603515625,135.015625)" y="0" x="0" id="text-entity-Address-c76279a2-ae7d-51c9-9b7a-8d5514196196-attr-5-name" class="er entityLabel">HouseNumber</text><rect height="24" width="23.12841796875" y="123.015625" x="118.23544311523438" class="er attributeBoxOdd"></rect><text style="dominant-baseline: middle; font-size: 10.2px;" transform="translate(123.23544311523438,135.015625)" y="0" x="0" id="text-entity-Address-c76279a2-ae7d-51c9-9b7a-8d5514196196-attr-5-key" class="er entityLabel"></text></g><g transform="translate(145.9115753173828,267.015625 )" id="entity-ContactInfo-db7f1dcf-9339-5cf2-9c6a-6df707b66bd9"><rect height="123.015625" width="118.1915283203125" y="0" x="0" class="er entityBox"></rect><text style="dominant-baseline: middle; text-anchor: middle; font-size: 12px;" transform="translate(59.09576416015625,13.5078125)" y="0" x="0" id="text-entity-ContactInfo-db7f1dcf-9339-5cf2-9c6a-6df707b66bd9" class="er entityLabel">ContactInfo</text><rect height="24" width="37.4693603515625" y="27.015625" x="0" class="er attributeBoxOdd"></rect><text style="dominant-baseline: middle; font-size: 10.2px;" transform="translate(5,39.015625)" y="0" x="0" id="text-entity-ContactInfo-db7f1dcf-9339-5cf2-9c6a-6df707b66bd9-attr-1-type" class="er entityLabel">int</text><rect height="24" width="57.59375" y="27.015625" x="37.4693603515625" class="er attributeBoxOdd"></rect><text style="dominant-baseline: middle; font-size: 10.2px;" transform="translate(42.4693603515625,39.015625)" y="0" x="0" id="text-entity-ContactInfo-db7f1dcf-9339-5cf2-9c6a-6df707b66bd9-attr-1-name" class="er entityLabel">Id</text><rect height="24" width="23.12841796875" y="27.015625" x="95.0631103515625" class="er attributeBoxOdd"></rect><text style="dominant-baseline: middle; font-size: 10.2px;" transform="translate(100.0631103515625,39.015625)" y="0" x="0" id="text-entity-ContactInfo-db7f1dcf-9339-5cf2-9c6a-6df707b66bd9-attr-1-key" class="er entityLabel">PK</text><rect height="24" width="37.4693603515625" y="51.015625" x="0" class="er attributeBoxEven"></rect><text style="dominant-baseline: middle; font-size: 10.2px;" transform="translate(5,63.015625)" y="0" x="0" id="text-entity-ContactInfo-db7f1dcf-9339-5cf2-9c6a-6df707b66bd9-attr-2-type" class="er entityLabel">string</text><rect height="24" width="57.59375" y="51.015625" x="37.4693603515625" class="er attributeBoxEven"></rect><text style="dominant-baseline: middle; font-size: 10.2px;" transform="translate(42.4693603515625,63.015625)" y="0" x="0" id="text-entity-ContactInfo-db7f1dcf-9339-5cf2-9c6a-6df707b66bd9-attr-2-name" class="er entityLabel">Email</text><rect height="24" width="23.12841796875" y="51.015625" x="95.0631103515625" class="er attributeBoxEven"></rect><text style="dominant-baseline: middle; font-size: 10.2px;" transform="translate(100.0631103515625,63.015625)" y="0" x="0" id="text-entity-ContactInfo-db7f1dcf-9339-5cf2-9c6a-6df707b66bd9-attr-2-key" class="er entityLabel"></text><rect height="24" width="37.4693603515625" y="75.015625" x="0" class="er attributeBoxOdd"></rect><text style="dominant-baseline: middle; font-size: 10.2px;" transform="translate(5,87.015625)" y="0" x="0" id="text-entity-ContactInfo-db7f1dcf-9339-5cf2-9c6a-6df707b66bd9-attr-3-type" class="er entityLabel">string</text><rect height="24" width="57.59375" y="75.015625" x="37.4693603515625" class="er attributeBoxOdd"></rect><text style="dominant-baseline: middle; font-size: 10.2px;" transform="translate(42.4693603515625,87.015625)" y="0" x="0" id="text-entity-ContactInfo-db7f1dcf-9339-5cf2-9c6a-6df707b66bd9-attr-3-name" class="er entityLabel">Phone</text><rect height="24" width="23.12841796875" y="75.015625" x="95.0631103515625" class="er attributeBoxOdd"></rect><text style="dominant-baseline: middle; font-size: 10.2px;" transform="translate(100.0631103515625,87.015625)" y="0" x="0" id="text-entity-ContactInfo-db7f1dcf-9339-5cf2-9c6a-6df707b66bd9-attr-3-key" class="er entityLabel"></text><rect height="24" width="37.4693603515625" y="99.015625" x="0" class="er attributeBoxEven"></rect><text style="dominant-baseline: middle; font-size: 10.2px;" transform="translate(5,111.015625)" y="0" x="0" id="text-entity-ContactInfo-db7f1dcf-9339-5cf2-9c6a-6df707b66bd9-attr-4-type" class="er entityLabel">int</text><rect height="24" width="57.59375" y="99.015625" x="37.4693603515625" class="er attributeBoxEven"></rect><text style="dominant-baseline: middle; font-size: 10.2px;" transform="translate(42.4693603515625,111.015625)" y="0" x="0" id="text-entity-ContactInfo-db7f1dcf-9339-5cf2-9c6a-6df707b66bd9-attr-4-name" class="er entityLabel">AddressId</text><rect height="24" width="23.12841796875" y="99.015625" x="95.0631103515625" class="er attributeBoxEven"></rect><text style="dominant-baseline: middle; font-size: 10.2px;" transform="translate(100.0631103515625,111.015625)" y="0" x="0" id="text-entity-ContactInfo-db7f1dcf-9339-5cf2-9c6a-6df707b66bd9-attr-4-key" class="er entityLabel">FK</text></g><g transform="translate(255.08877563476562,502.03125 )" id="entity-Organisator-09704bcf-78a5-57a8-bccd-b7e2a2005320"><rect height="99.015625" width="134.9259033203125" y="0" x="0" class="er entityBox"></rect><text style="dominant-baseline: middle; text-anchor: middle; font-size: 12px;" transform="translate(67.46295166015625,13.5078125)" y="0" x="0" id="text-entity-Organisator-09704bcf-78a5-57a8-bccd-b7e2a2005320" class="er entityLabel">Organisator</text><rect height="24" width="37.4693603515625" y="27.015625" x="0" class="er attributeBoxOdd"></rect><text style="dominant-baseline: middle; font-size: 10.2px;" transform="translate(5,39.015625)" y="0" x="0" id="text-entity-Organisator-09704bcf-78a5-57a8-bccd-b7e2a2005320-attr-1-type" class="er entityLabel">int</text><rect height="24" width="74.328125" y="27.015625" x="37.4693603515625" class="er attributeBoxOdd"></rect><text style="dominant-baseline: middle; font-size: 10.2px;" transform="translate(42.4693603515625,39.015625)" y="0" x="0" id="text-entity-Organisator-09704bcf-78a5-57a8-bccd-b7e2a2005320-attr-1-name" class="er entityLabel">Id</text><rect height="24" width="23.12841796875" y="27.015625" x="111.7974853515625" class="er attributeBoxOdd"></rect><text style="dominant-baseline: middle; font-size: 10.2px;" transform="translate(116.7974853515625,39.015625)" y="0" x="0" id="text-entity-Organisator-09704bcf-78a5-57a8-bccd-b7e2a2005320-attr-1-key" class="er entityLabel">PK</text><rect height="24" width="37.4693603515625" y="51.015625" x="0" class="er attributeBoxEven"></rect><text style="dominant-baseline: middle; font-size: 10.2px;" transform="translate(5,63.015625)" y="0" x="0" id="text-entity-Organisator-09704bcf-78a5-57a8-bccd-b7e2a2005320-attr-2-type" class="er entityLabel">string</text><rect height="24" width="74.328125" y="51.015625" x="37.4693603515625" class="er attributeBoxEven"></rect><text style="dominant-baseline: middle; font-size: 10.2px;" transform="translate(42.4693603515625,63.015625)" y="0" x="0" id="text-entity-Organisator-09704bcf-78a5-57a8-bccd-b7e2a2005320-attr-2-name" class="er entityLabel">Name</text><rect height="24" width="23.12841796875" y="51.015625" x="111.7974853515625" class="er attributeBoxEven"></rect><text style="dominant-baseline: middle; font-size: 10.2px;" transform="translate(116.7974853515625,63.015625)" y="0" x="0" id="text-entity-Organisator-09704bcf-78a5-57a8-bccd-b7e2a2005320-attr-2-key" class="er entityLabel"></text><rect height="24" width="37.4693603515625" y="75.015625" x="0" class="er attributeBoxOdd"></rect><text style="dominant-baseline: middle; font-size: 10.2px;" transform="translate(5,87.015625)" y="0" x="0" id="text-entity-Organisator-09704bcf-78a5-57a8-bccd-b7e2a2005320-attr-3-type" class="er entityLabel">int</text><rect height="24" width="74.328125" y="75.015625" x="37.4693603515625" class="er attributeBoxOdd"></rect><text style="dominant-baseline: middle; font-size: 10.2px;" transform="translate(42.4693603515625,87.015625)" y="0" x="0" id="text-entity-Organisator-09704bcf-78a5-57a8-bccd-b7e2a2005320-attr-3-name" class="er entityLabel">ContactInfoId</text><rect height="24" width="23.12841796875" y="75.015625" x="111.7974853515625" class="er attributeBoxOdd"></rect><text style="dominant-baseline: middle; font-size: 10.2px;" transform="translate(116.7974853515625,87.015625)" y="0" x="0" id="text-entity-Organisator-09704bcf-78a5-57a8-bccd-b7e2a2005320-attr-3-key" class="er entityLabel">FK</text></g><g transform="translate(20,490.03125 )" id="entity-Klant-1a81d294-7ad2-5e80-8dda-60877a9af8fd"><rect height="123.015625" width="134.9259033203125" y="0" x="0" class="er entityBox"></rect><text style="dominant-baseline: middle; text-anchor: middle; font-size: 12px;" transform="translate(67.46295166015625,13.5078125)" y="0" x="0" id="text-entity-Klant-1a81d294-7ad2-5e80-8dda-60877a9af8fd" class="er entityLabel">Klant</text><rect height="24" width="37.4693603515625" y="27.015625" x="0" class="er attributeBoxOdd"></rect><text style="dominant-baseline: middle; font-size: 10.2px;" transform="translate(5,39.015625)" y="0" x="0" id="text-entity-Klant-1a81d294-7ad2-5e80-8dda-60877a9af8fd-attr-1-type" class="er entityLabel">int</text><rect height="24" width="74.328125" y="27.015625" x="37.4693603515625" class="er attributeBoxOdd"></rect><text style="dominant-baseline: middle; font-size: 10.2px;" transform="translate(42.4693603515625,39.015625)" y="0" x="0" id="text-entity-Klant-1a81d294-7ad2-5e80-8dda-60877a9af8fd-attr-1-name" class="er entityLabel">Id</text><rect height="24" width="23.12841796875" y="27.015625" x="111.7974853515625" class="er attributeBoxOdd"></rect><text style="dominant-baseline: middle; font-size: 10.2px;" transform="translate(116.7974853515625,39.015625)" y="0" x="0" id="text-entity-Klant-1a81d294-7ad2-5e80-8dda-60877a9af8fd-attr-1-key" class="er entityLabel">PK</text><rect height="24" width="37.4693603515625" y="51.015625" x="0" class="er attributeBoxEven"></rect><text style="dominant-baseline: middle; font-size: 10.2px;" transform="translate(5,63.015625)" y="0" x="0" id="text-entity-Klant-1a81d294-7ad2-5e80-8dda-60877a9af8fd-attr-2-type" class="er entityLabel">string</text><rect height="24" width="74.328125" y="51.015625" x="37.4693603515625" class="er attributeBoxEven"></rect><text style="dominant-baseline: middle; font-size: 10.2px;" transform="translate(42.4693603515625,63.015625)" y="0" x="0" id="text-entity-Klant-1a81d294-7ad2-5e80-8dda-60877a9af8fd-attr-2-name" class="er entityLabel">Name</text><rect height="24" width="23.12841796875" y="51.015625" x="111.7974853515625" class="er attributeBoxEven"></rect><text style="dominant-baseline: middle; font-size: 10.2px;" transform="translate(116.7974853515625,63.015625)" y="0" x="0" id="text-entity-Klant-1a81d294-7ad2-5e80-8dda-60877a9af8fd-attr-2-key" class="er entityLabel"></text><rect height="24" width="37.4693603515625" y="75.015625" x="0" class="er attributeBoxOdd"></rect><text style="dominant-baseline: middle; font-size: 10.2px;" transform="translate(5,87.015625)" y="0" x="0" id="text-entity-Klant-1a81d294-7ad2-5e80-8dda-60877a9af8fd-attr-3-type" class="er entityLabel">int</text><rect height="24" width="74.328125" y="75.015625" x="37.4693603515625" class="er attributeBoxOdd"></rect><text style="dominant-baseline: middle; font-size: 10.2px;" transform="translate(42.4693603515625,87.015625)" y="0" x="0" id="text-entity-Klant-1a81d294-7ad2-5e80-8dda-60877a9af8fd-attr-3-name" class="er entityLabel">ContactInfoId</text><rect height="24" width="23.12841796875" y="75.015625" x="111.7974853515625" class="er attributeBoxOdd"></rect><text style="dominant-baseline: middle; font-size: 10.2px;" transform="translate(116.7974853515625,87.015625)" y="0" x="0" id="text-entity-Klant-1a81d294-7ad2-5e80-8dda-60877a9af8fd-attr-3-key" class="er entityLabel">FK</text><rect height="24" width="37.4693603515625" y="99.015625" x="0" class="er attributeBoxEven"></rect><text style="dominant-baseline: middle; font-size: 10.2px;" transform="translate(5,111.015625)" y="0" x="0" id="text-entity-Klant-1a81d294-7ad2-5e80-8dda-60877a9af8fd-attr-4-type" class="er entityLabel">bit</text><rect height="24" width="74.328125" y="99.015625" x="37.4693603515625" class="er attributeBoxEven"></rect><text style="dominant-baseline: middle; font-size: 10.2px;" transform="translate(42.4693603515625,111.015625)" y="0" x="0" id="text-entity-Klant-1a81d294-7ad2-5e80-8dda-60877a9af8fd-attr-4-name" class="er entityLabel">IsActive</text><rect height="24" width="23.12841796875" y="99.015625" x="111.7974853515625" class="er attributeBoxEven"></rect><text style="dominant-baseline: middle; font-size: 10.2px;" transform="translate(116.7974853515625,111.015625)" y="0" x="0" id="text-entity-Klant-1a81d294-7ad2-5e80-8dda-60877a9af8fd-attr-4-key" class="er entityLabel"></text></g><g transform="translate(31.619476318359375,797.046875 )" id="entity-Member-da0843c3-d2cb-5701-b506-40a0471bbb02"><rect height="123.015625" width="111.68695068359375" y="0" x="0" class="er entityBox"></rect><text style="dominant-baseline: middle; text-anchor: middle; font-size: 12px;" transform="translate(55.843475341796875,13.5078125)" y="0" x="0" id="text-entity-Member-da0843c3-d2cb-5701-b506-40a0471bbb02" class="er entityLabel">Member</text><rect height="24" width="37.4693603515625" y="27.015625" x="0" class="er attributeBoxOdd"></rect><text style="dominant-baseline: middle; font-size: 10.2px;" transform="translate(5,39.015625)" y="0" x="0" id="text-entity-Member-da0843c3-d2cb-5701-b506-40a0471bbb02-attr-1-type" class="er entityLabel">int</text><rect height="24" width="51.08917236328125" y="27.015625" x="37.4693603515625" class="er attributeBoxOdd"></rect><text style="dominant-baseline: middle; font-size: 10.2px;" transform="translate(42.4693603515625,39.015625)" y="0" x="0" id="text-entity-Member-da0843c3-d2cb-5701-b506-40a0471bbb02-attr-1-name" class="er entityLabel">Id</text><rect height="24" width="23.12841796875" y="27.015625" x="88.55853271484375" class="er attributeBoxOdd"></rect><text style="dominant-baseline: middle; font-size: 10.2px;" transform="translate(93.55853271484375,39.015625)" y="0" x="0" id="text-entity-Member-da0843c3-d2cb-5701-b506-40a0471bbb02-attr-1-key" class="er entityLabel">PK</text><rect height="24" width="37.4693603515625" y="51.015625" x="0" class="er attributeBoxEven"></rect><text style="dominant-baseline: middle; font-size: 10.2px;" transform="translate(5,63.015625)" y="0" x="0" id="text-entity-Member-da0843c3-d2cb-5701-b506-40a0471bbb02-attr-2-type" class="er entityLabel">string</text><rect height="24" width="51.08917236328125" y="51.015625" x="37.4693603515625" class="er attributeBoxEven"></rect><text style="dominant-baseline: middle; font-size: 10.2px;" transform="translate(42.4693603515625,63.015625)" y="0" x="0" id="text-entity-Member-da0843c3-d2cb-5701-b506-40a0471bbb02-attr-2-name" class="er entityLabel">Name</text><rect height="24" width="23.12841796875" y="51.015625" x="88.55853271484375" class="er attributeBoxEven"></rect><text style="dominant-baseline: middle; font-size: 10.2px;" transform="translate(93.55853271484375,63.015625)" y="0" x="0" id="text-entity-Member-da0843c3-d2cb-5701-b506-40a0471bbb02-attr-2-key" class="er entityLabel"></text><rect height="24" width="37.4693603515625" y="75.015625" x="0" class="er attributeBoxOdd"></rect><text style="dominant-baseline: middle; font-size: 10.2px;" transform="translate(5,87.015625)" y="0" x="0" id="text-entity-Member-da0843c3-d2cb-5701-b506-40a0471bbb02-attr-3-type" class="er entityLabel">date</text><rect height="24" width="51.08917236328125" y="75.015625" x="37.4693603515625" class="er attributeBoxOdd"></rect><text style="dominant-baseline: middle; font-size: 10.2px;" transform="translate(42.4693603515625,87.015625)" y="0" x="0" id="text-entity-Member-da0843c3-d2cb-5701-b506-40a0471bbb02-attr-3-name" class="er entityLabel">Birthday</text><rect height="24" width="23.12841796875" y="75.015625" x="88.55853271484375" class="er attributeBoxOdd"></rect><text style="dominant-baseline: middle; font-size: 10.2px;" transform="translate(93.55853271484375,87.015625)" y="0" x="0" id="text-entity-Member-da0843c3-d2cb-5701-b506-40a0471bbb02-attr-3-key" class="er entityLabel"></text><rect height="24" width="37.4693603515625" y="99.015625" x="0" class="er attributeBoxEven"></rect><text style="dominant-baseline: middle; font-size: 10.2px;" transform="translate(5,111.015625)" y="0" x="0" id="text-entity-Member-da0843c3-d2cb-5701-b506-40a0471bbb02-attr-4-type" class="er entityLabel">int</text><rect height="24" width="51.08917236328125" y="99.015625" x="37.4693603515625" class="er attributeBoxEven"></rect><text style="dominant-baseline: middle; font-size: 10.2px;" transform="translate(42.4693603515625,111.015625)" y="0" x="0" id="text-entity-Member-da0843c3-d2cb-5701-b506-40a0471bbb02-attr-4-name" class="er entityLabel">KlantId</text><rect height="24" width="23.12841796875" y="99.015625" x="88.55853271484375" class="er attributeBoxEven"></rect><text style="dominant-baseline: middle; font-size: 10.2px;" transform="translate(93.55853271484375,111.015625)" y="0" x="0" id="text-entity-Member-da0843c3-d2cb-5701-b506-40a0471bbb02-attr-4-key" class="er entityLabel">FK</text></g><g transform="translate(243.30642700195312,713.046875 )" id="entity-Activiteit-0b912d86-5926-5ccb-919c-869e5237c895"><rect height="291.015625" width="158.4906005859375" y="0" x="0" class="er entityBox"></rect><text style="dominant-baseline: middle; text-anchor: middle; font-size: 12px;" transform="translate(79.24530029296875,13.5078125)" y="0" x="0" id="text-entity-Activiteit-0b912d86-5926-5ccb-919c-869e5237c895" class="er entityLabel">Activiteit</text><rect height="24" width="52.87994384765625" y="27.015625" x="0" class="er attributeBoxOdd"></rect><text style="dominant-baseline: middle; font-size: 10.2px;" transform="translate(5,39.015625)" y="0" x="0" id="text-entity-Activiteit-0b912d86-5926-5ccb-919c-869e5237c895-attr-1-type" class="er entityLabel">int</text><rect height="24" width="82.48223876953125" y="27.015625" x="52.87994384765625" class="er attributeBoxOdd"></rect><text style="dominant-baseline: middle; font-size: 10.2px;" transform="translate(57.87994384765625,39.015625)" y="0" x="0" id="text-entity-Activiteit-0b912d86-5926-5ccb-919c-869e5237c895-attr-1-name" class="er entityLabel">Id</text><rect height="24" width="23.12841796875" y="27.015625" x="135.3621826171875" class="er attributeBoxOdd"></rect><text style="dominant-baseline: middle; font-size: 10.2px;" transform="translate(140.3621826171875,39.015625)" y="0" x="0" id="text-entity-Activiteit-0b912d86-5926-5ccb-919c-869e5237c895-attr-1-key" class="er entityLabel">PK</text><rect height="24" width="52.87994384765625" y="51.015625" x="0" class="er attributeBoxEven"></rect><text style="dominant-baseline: middle; font-size: 10.2px;" transform="translate(5,63.015625)" y="0" x="0" id="text-entity-Activiteit-0b912d86-5926-5ccb-919c-869e5237c895-attr-2-type" class="er entityLabel">string</text><rect height="24" width="82.48223876953125" y="51.015625" x="52.87994384765625" class="er attributeBoxEven"></rect><text style="dominant-baseline: middle; font-size: 10.2px;" transform="translate(57.87994384765625,63.015625)" y="0" x="0" id="text-entity-Activiteit-0b912d86-5926-5ccb-919c-869e5237c895-attr-2-name" class="er entityLabel">Description</text><rect height="24" width="23.12841796875" y="51.015625" x="135.3621826171875" class="er attributeBoxEven"></rect><text style="dominant-baseline: middle; font-size: 10.2px;" transform="translate(140.3621826171875,63.015625)" y="0" x="0" id="text-entity-Activiteit-0b912d86-5926-5ccb-919c-869e5237c895-attr-2-key" class="er entityLabel"></text><rect height="24" width="52.87994384765625" y="75.015625" x="0" class="er attributeBoxOdd"></rect><text style="dominant-baseline: middle; font-size: 10.2px;" transform="translate(5,87.015625)" y="0" x="0" id="text-entity-Activiteit-0b912d86-5926-5ccb-919c-869e5237c895-attr-3-type" class="er entityLabel">string</text><rect height="24" width="82.48223876953125" y="75.015625" x="52.87994384765625" class="er attributeBoxOdd"></rect><text style="dominant-baseline: middle; font-size: 10.2px;" transform="translate(57.87994384765625,87.015625)" y="0" x="0" id="text-entity-Activiteit-0b912d86-5926-5ccb-919c-869e5237c895-attr-3-name" class="er entityLabel">Location</text><rect height="24" width="23.12841796875" y="75.015625" x="135.3621826171875" class="er attributeBoxOdd"></rect><text style="dominant-baseline: middle; font-size: 10.2px;" transform="translate(140.3621826171875,87.015625)" y="0" x="0" id="text-entity-Activiteit-0b912d86-5926-5ccb-919c-869e5237c895-attr-3-key" class="er entityLabel"></text><rect height="24" width="52.87994384765625" y="99.015625" x="0" class="er attributeBoxEven"></rect><text style="dominant-baseline: middle; font-size: 10.2px;" transform="translate(5,111.015625)" y="0" x="0" id="text-entity-Activiteit-0b912d86-5926-5ccb-919c-869e5237c895-attr-4-type" class="er entityLabel">time</text><rect height="24" width="82.48223876953125" y="99.015625" x="52.87994384765625" class="er attributeBoxEven"></rect><text style="dominant-baseline: middle; font-size: 10.2px;" transform="translate(57.87994384765625,111.015625)" y="0" x="0" id="text-entity-Activiteit-0b912d86-5926-5ccb-919c-869e5237c895-attr-4-name" class="er entityLabel">Duration</text><rect height="24" width="23.12841796875" y="99.015625" x="135.3621826171875" class="er attributeBoxEven"></rect><text style="dominant-baseline: middle; font-size: 10.2px;" transform="translate(140.3621826171875,111.015625)" y="0" x="0" id="text-entity-Activiteit-0b912d86-5926-5ccb-919c-869e5237c895-attr-4-key" class="er entityLabel"></text><rect height="24" width="52.87994384765625" y="123.015625" x="0" class="er attributeBoxOdd"></rect><text style="dominant-baseline: middle; font-size: 10.2px;" transform="translate(5,135.015625)" y="0" x="0" id="text-entity-Activiteit-0b912d86-5926-5ccb-919c-869e5237c895-attr-5-type" class="er entityLabel">string</text><rect height="24" width="82.48223876953125" y="123.015625" x="52.87994384765625" class="er attributeBoxOdd"></rect><text style="dominant-baseline: middle; font-size: 10.2px;" transform="translate(57.87994384765625,135.015625)" y="0" x="0" id="text-entity-Activiteit-0b912d86-5926-5ccb-919c-869e5237c895-attr-5-name" class="er entityLabel">Name</text><rect height="24" width="23.12841796875" y="123.015625" x="135.3621826171875" class="er attributeBoxOdd"></rect><text style="dominant-baseline: middle; font-size: 10.2px;" transform="translate(140.3621826171875,135.015625)" y="0" x="0" id="text-entity-Activiteit-0b912d86-5926-5ccb-919c-869e5237c895-attr-5-key" class="er entityLabel"></text><rect height="24" width="52.87994384765625" y="147.015625" x="0" class="er attributeBoxEven"></rect><text style="dominant-baseline: middle; font-size: 10.2px;" transform="translate(5,159.015625)" y="0" x="0" id="text-entity-Activiteit-0b912d86-5926-5ccb-919c-869e5237c895-attr-6-type" class="er entityLabel">datetime</text><rect height="24" width="82.48223876953125" y="147.015625" x="52.87994384765625" class="er attributeBoxEven"></rect><text style="dominant-baseline: middle; font-size: 10.2px;" transform="translate(57.87994384765625,159.015625)" y="0" x="0" id="text-entity-Activiteit-0b912d86-5926-5ccb-919c-869e5237c895-attr-6-name" class="er entityLabel">Date</text><rect height="24" width="23.12841796875" y="147.015625" x="135.3621826171875" class="er attributeBoxEven"></rect><text style="dominant-baseline: middle; font-size: 10.2px;" transform="translate(140.3621826171875,159.015625)" y="0" x="0" id="text-entity-Activiteit-0b912d86-5926-5ccb-919c-869e5237c895-attr-6-key" class="er entityLabel"></text><rect height="24" width="52.87994384765625" y="171.015625" x="0" class="er attributeBoxOdd"></rect><text style="dominant-baseline: middle; font-size: 10.2px;" transform="translate(5,183.015625)" y="0" x="0" id="text-entity-Activiteit-0b912d86-5926-5ccb-919c-869e5237c895-attr-7-type" class="er entityLabel">int</text><rect height="24" width="82.48223876953125" y="171.015625" x="52.87994384765625" class="er attributeBoxOdd"></rect><text style="dominant-baseline: middle; font-size: 10.2px;" transform="translate(57.87994384765625,183.015625)" y="0" x="0" id="text-entity-Activiteit-0b912d86-5926-5ccb-919c-869e5237c895-attr-7-name" class="er entityLabel">AvailablePlaces</text><rect height="24" width="23.12841796875" y="171.015625" x="135.3621826171875" class="er attributeBoxOdd"></rect><text style="dominant-baseline: middle; font-size: 10.2px;" transform="translate(140.3621826171875,183.015625)" y="0" x="0" id="text-entity-Activiteit-0b912d86-5926-5ccb-919c-869e5237c895-attr-7-key" class="er entityLabel"></text><rect height="24" width="52.87994384765625" y="195.015625" x="0" class="er attributeBoxEven"></rect><text style="dominant-baseline: middle; font-size: 10.2px;" transform="translate(5,207.015625)" y="0" x="0" id="text-entity-Activiteit-0b912d86-5926-5ccb-919c-869e5237c895-attr-8-type" class="er entityLabel">float</text><rect height="24" width="82.48223876953125" y="195.015625" x="52.87994384765625" class="er attributeBoxEven"></rect><text style="dominant-baseline: middle; font-size: 10.2px;" transform="translate(57.87994384765625,207.015625)" y="0" x="0" id="text-entity-Activiteit-0b912d86-5926-5ccb-919c-869e5237c895-attr-8-name" class="er entityLabel">AdultPrice</text><rect height="24" width="23.12841796875" y="195.015625" x="135.3621826171875" class="er attributeBoxEven"></rect><text style="dominant-baseline: middle; font-size: 10.2px;" transform="translate(140.3621826171875,207.015625)" y="0" x="0" id="text-entity-Activiteit-0b912d86-5926-5ccb-919c-869e5237c895-attr-8-key" class="er entityLabel"></text><rect height="24" width="52.87994384765625" y="219.015625" x="0" class="er attributeBoxOdd"></rect><text style="dominant-baseline: middle; font-size: 10.2px;" transform="translate(5,231.015625)" y="0" x="0" id="text-entity-Activiteit-0b912d86-5926-5ccb-919c-869e5237c895-attr-9-type" class="er entityLabel">float</text><rect height="24" width="82.48223876953125" y="219.015625" x="52.87994384765625" class="er attributeBoxOdd"></rect><text style="dominant-baseline: middle; font-size: 10.2px;" transform="translate(57.87994384765625,231.015625)" y="0" x="0" id="text-entity-Activiteit-0b912d86-5926-5ccb-919c-869e5237c895-attr-9-name" class="er entityLabel">ChildPrice</text><rect height="24" width="23.12841796875" y="219.015625" x="135.3621826171875" class="er attributeBoxOdd"></rect><text style="dominant-baseline: middle; font-size: 10.2px;" transform="translate(140.3621826171875,231.015625)" y="0" x="0" id="text-entity-Activiteit-0b912d86-5926-5ccb-919c-869e5237c895-attr-9-key" class="er entityLabel"></text><rect height="24" width="52.87994384765625" y="243.015625" x="0" class="er attributeBoxEven"></rect><text style="dominant-baseline: middle; font-size: 10.2px;" transform="translate(5,255.015625)" y="0" x="0" id="text-entity-Activiteit-0b912d86-5926-5ccb-919c-869e5237c895-attr-10-type" class="er entityLabel">float</text><rect height="24" width="82.48223876953125" y="243.015625" x="52.87994384765625" class="er attributeBoxEven"></rect><text style="dominant-baseline: middle; font-size: 10.2px;" transform="translate(57.87994384765625,255.015625)" y="0" x="0" id="text-entity-Activiteit-0b912d86-5926-5ccb-919c-869e5237c895-attr-10-name" class="er entityLabel">Discount</text><rect height="24" width="23.12841796875" y="243.015625" x="135.3621826171875" class="er attributeBoxEven"></rect><text style="dominant-baseline: middle; font-size: 10.2px;" transform="translate(140.3621826171875,255.015625)" y="0" x="0" id="text-entity-Activiteit-0b912d86-5926-5ccb-919c-869e5237c895-attr-10-key" class="er entityLabel"></text><rect height="24" width="52.87994384765625" y="267.015625" x="0" class="er attributeBoxOdd"></rect><text style="dominant-baseline: middle; font-size: 10.2px;" transform="translate(5,279.015625)" y="0" x="0" id="text-entity-Activiteit-0b912d86-5926-5ccb-919c-869e5237c895-attr-11-type" class="er entityLabel">int</text><rect height="24" width="82.48223876953125" y="267.015625" x="52.87994384765625" class="er attributeBoxOdd"></rect><text style="dominant-baseline: middle; font-size: 10.2px;" transform="translate(57.87994384765625,279.015625)" y="0" x="0" id="text-entity-Activiteit-0b912d86-5926-5ccb-919c-869e5237c895-attr-11-name" class="er entityLabel">OrganisatorId</text><rect height="24" width="23.12841796875" y="267.015625" x="135.3621826171875" class="er attributeBoxOdd"></rect><text style="dominant-baseline: middle; font-size: 10.2px;" transform="translate(140.3621826171875,279.015625)" y="0" x="0" id="text-entity-Activiteit-0b912d86-5926-5ccb-919c-869e5237c895-attr-11-key" class="er entityLabel">FK</text></g><g transform="translate(147.79115295410156,1104.0625 )" id="entity-Inschrijving-e690aab1-bddb-5531-b719-46653adb67d9"><rect height="123.015625" width="114.432373046875" y="0" x="0" class="er entityBox"></rect><text style="dominant-baseline: middle; text-anchor: middle; font-size: 12px;" transform="translate(57.2161865234375,13.5078125)" y="0" x="0" id="text-entity-Inschrijving-e690aab1-bddb-5531-b719-46653adb67d9" class="er entityLabel">Inschrijving</text><rect height="24" width="31.788330078125" y="27.015625" x="0" class="er attributeBoxOdd"></rect><text style="dominant-baseline: middle; font-size: 10.2px;" transform="translate(5,39.015625)" y="0" x="0" id="text-entity-Inschrijving-e690aab1-bddb-5531-b719-46653adb67d9-attr-1-type" class="er entityLabel">int</text><rect height="24" width="59.515625" y="27.015625" x="31.788330078125" class="er attributeBoxOdd"></rect><text style="dominant-baseline: middle; font-size: 10.2px;" transform="translate(36.788330078125,39.015625)" y="0" x="0" id="text-entity-Inschrijving-e690aab1-bddb-5531-b719-46653adb67d9-attr-1-name" class="er entityLabel">Id</text><rect height="24" width="23.12841796875" y="27.015625" x="91.303955078125" class="er attributeBoxOdd"></rect><text style="dominant-baseline: middle; font-size: 10.2px;" transform="translate(96.303955078125,39.015625)" y="0" x="0" id="text-entity-Inschrijving-e690aab1-bddb-5531-b719-46653adb67d9-attr-1-key" class="er entityLabel">PK</text><rect height="24" width="31.788330078125" y="51.015625" x="0" class="er attributeBoxEven"></rect><text style="dominant-baseline: middle; font-size: 10.2px;" transform="translate(5,63.015625)" y="0" x="0" id="text-entity-Inschrijving-e690aab1-bddb-5531-b719-46653adb67d9-attr-2-type" class="er entityLabel">int</text><rect height="24" width="59.515625" y="51.015625" x="31.788330078125" class="er attributeBoxEven"></rect><text style="dominant-baseline: middle; font-size: 10.2px;" transform="translate(36.788330078125,63.015625)" y="0" x="0" id="text-entity-Inschrijving-e690aab1-bddb-5531-b719-46653adb67d9-attr-2-name" class="er entityLabel">MemberId</text><rect height="24" width="23.12841796875" y="51.015625" x="91.303955078125" class="er attributeBoxEven"></rect><text style="dominant-baseline: middle; font-size: 10.2px;" transform="translate(96.303955078125,63.015625)" y="0" x="0" id="text-entity-Inschrijving-e690aab1-bddb-5531-b719-46653adb67d9-attr-2-key" class="er entityLabel">FK</text><rect height="24" width="31.788330078125" y="75.015625" x="0" class="er attributeBoxOdd"></rect><text style="dominant-baseline: middle; font-size: 10.2px;" transform="translate(5,87.015625)" y="0" x="0" id="text-entity-Inschrijving-e690aab1-bddb-5531-b719-46653adb67d9-attr-3-type" class="er entityLabel">int</text><rect height="24" width="59.515625" y="75.015625" x="31.788330078125" class="er attributeBoxOdd"></rect><text style="dominant-baseline: middle; font-size: 10.2px;" transform="translate(36.788330078125,87.015625)" y="0" x="0" id="text-entity-Inschrijving-e690aab1-bddb-5531-b719-46653adb67d9-attr-3-name" class="er entityLabel">ActivityId</text><rect height="24" width="23.12841796875" y="75.015625" x="91.303955078125" class="er attributeBoxOdd"></rect><text style="dominant-baseline: middle; font-size: 10.2px;" transform="translate(96.303955078125,87.015625)" y="0" x="0" id="text-entity-Inschrijving-e690aab1-bddb-5531-b719-46653adb67d9-attr-3-key" class="er entityLabel">FK</text><rect height="24" width="31.788330078125" y="99.015625" x="0" class="er attributeBoxEven"></rect><text style="dominant-baseline: middle; font-size: 10.2px;" transform="translate(5,111.015625)" y="0" x="0" id="text-entity-Inschrijving-e690aab1-bddb-5531-b719-46653adb67d9-attr-4-type" class="er entityLabel">float</text><rect height="24" width="59.515625" y="99.015625" x="31.788330078125" class="er attributeBoxEven"></rect><text style="dominant-baseline: middle; font-size: 10.2px;" transform="translate(36.788330078125,111.015625)" y="0" x="0" id="text-entity-Inschrijving-e690aab1-bddb-5531-b719-46653adb67d9-attr-4-name" class="er entityLabel">TotalPrice</text><rect height="24" width="23.12841796875" y="99.015625" x="91.303955078125" class="er attributeBoxEven"></rect><text style="dominant-baseline: middle; font-size: 10.2px;" transform="translate(96.303955078125,111.015625)" y="0" x="0" id="text-entity-Inschrijving-e690aab1-bddb-5531-b719-46653adb67d9-attr-4-key" class="er entityLabel"></text></g><rect height="17.015625" width="20.02734375" y="208.5081787109375" x="194.9933319091797" class="er relationshipLabelBox"></rect><text style="text-anchor: middle; dominant-baseline: middle; font-size: 12px;" y="217.0159912109375" x="205.0070037841797" id="rel1" class="er relationshipLabel">has</text><rect height="17.015625" width="20.02734375" y="427.05047607421875" x="299.7593994140625" class="er relationshipLabelBox"></rect><text style="text-anchor: middle; dominant-baseline: middle; font-size: 12px;" y="435.55828857421875" x="309.7730712890625" id="rel2" class="er relationshipLabel">has</text><rect height="17.015625" width="20.02734375" y="421.808837890625" x="92.77653503417969" class="er relationshipLabelBox"></rect><text style="text-anchor: middle; dominant-baseline: middle; font-size: 12px;" y="430.316650390625" x="102.79020690917969" id="rel3" class="er relationshipLabel">has</text><rect height="17.015625" width="20.02734375" y="696.5391845703125" x="77.44932556152344" class="er relationshipLabelBox"></rect><text style="text-anchor: middle; dominant-baseline: middle; font-size: 12px;" y="705.0469970703125" x="87.46299743652344" id="rel4" class="er relationshipLabel">has</text><rect height="17.015625" width="54.05859375" y="648.5391845703125" x="295.522705078125" class="er relationshipLabelBox"></rect><text style="text-anchor: middle; dominant-baseline: middle; font-size: 12px;" y="657.0469970703125" x="322.552001953125" id="rel5" class="er relationshipLabel">organizes</text><rect height="17.015625" width="48.826171875" y="1015.93603515625" x="68.87223052978516" class="er relationshipLabelBox"></rect><text style="text-anchor: middle; dominant-baseline: middle; font-size: 12px;" y="1024.44384765625" x="93.28531646728516" id="rel6" class="er relationshipLabel">registers</text><rect height="17.015625" width="46.60546875" y="1056.25830078125" x="283.05316162109375" class="er relationshipLabelBox"></rect><text style="text-anchor: middle; dominant-baseline: middle; font-size: 12px;" y="1064.76611328125" x="306.35589599609375" id="rel7" class="er relationshipLabel">includes</text></svg>